<svg xmlns="http://www.w3.org/2000/svg" xmlns:xlink="http://www.w3.org/1999/xlink" contentStyleType="text/css" data-diagram-type="SEQUENCE" height="512px" preserveAspectRatio="none" style="width:987px;height:512px;background:#FFFFFF;" version="1.1" viewBox="0 0 987 512" width="987px" zoomAndPan="magnify"><title>Join/Leave Group Flow</title><defs/><g><text fill="#000000" font-family="sans-serif" font-size="14" font-weight="bold" lengthAdjust="spacing" textLength="164.6025" x="409.3015" y="28.5352">Join/Leave Group Flow</text><g><title>WebUser</title><rect fill="#000000" fill-opacity="0.00000" height="312.1055" width="8" x="33.4766" y="118.9766"/><line style="stroke:#181818;stroke-width:0.5;stroke-dasharray:5,5;" x1="37" x2="37" y1="118.9766" y2="431.082"/></g><g><title>Frontend</title><rect fill="#000000" fill-opacity="0.00000" height="312.1055" width="8" x="233.9351" y="118.9766"/><line style="stroke:#181818;stroke-width:0.5;stroke-dasharray:5,5;" x1="237.4058" x2="237.4058" y1="118.9766" y2="431.082"/></g><g><title>Gateway</title><rect fill="#000000" fill-opacity="0.00000" height="312.1055" width="8" x="448.1045" y="118.9766"/><line style="stroke:#181818;stroke-width:0.5;stroke-dasharray:5,5;" x1="451.7456" x2="451.7456" y1="118.9766" y2="431.082"/></g><g><title>AppSvc</title><rect fill="#000000" fill-opacity="0.00000" height="312.1055" width="8" x="697.6494" y="118.9766"/><line style="stroke:#181818;stroke-width:0.5;stroke-dasharray:5,5;" x1="701.0298" x2="701.0298" y1="118.9766" y2="431.082"/></g><g><title>Mongo</title><rect fill="#000000" fill-opacity="0.00000" height="312.1055" width="8" x="948.8677" y="118.9766"/><line style="stroke:#181818;stroke-width:0.5;stroke-dasharray:5,5;" x1="952.5298" x2="952.5298" y1="118.9766" y2="431.082"/></g><g class="participant participant-head" data-participant="WebUser"><text fill="#000000" font-family="sans-serif" font-size="14" lengthAdjust="spacing" textLength="58.9531" x="5" y="116.0234">WebUser</text><ellipse cx="37.4766" cy="50.9883" fill="#E2E2F0" rx="8" ry="8" style="stroke:#181818;stroke-width:0.5;"/><path d="M37.4766,58.9883 L37.4766,85.9883 M24.4766,66.9883 L50.4766,66.9883 M37.4766,85.9883 L24.4766,100.9883 M37.4766,85.9883 L50.4766,100.9883" fill="none" style="stroke:#181818;stroke-width:0.5;"/></g><g class="participant participant-tail" data-participant="WebUser"><text fill="#000000" font-family="sans-serif" font-size="14" lengthAdjust="spacing" textLength="58.9531" x="5" y="443.6172">WebUser</text><ellipse cx="37.4766" cy="455.0703" fill="#E2E2F0" rx="8" ry="8" style="stroke:#181818;stroke-width:0.5;"/><path d="M37.4766,463.0703 L37.4766,490.0703 M24.4766,471.0703 L50.4766,471.0703 M37.4766,490.0703 L24.4766,505.0703 M37.4766,490.0703 L50.4766,505.0703" fill="none" style="stroke:#181818;stroke-width:0.5;"/></g><g class="participant participant-head" data-participant="Frontend"><rect fill="#E2E2F0" height="30.4883" rx="2.5" ry="2.5" style="stroke:#181818;stroke-width:0.5;" width="75.0586" x="200.4058" y="87.4883"/><text fill="#000000" font-family="sans-serif" font-size="14" lengthAdjust="spacing" textLength="61.0586" x="207.4058" y="108.0234">Frontend</text></g><g class="participant participant-tail" data-participant="Frontend"><rect fill="#E2E2F0" height="30.4883" rx="2.5" ry="2.5" style="stroke:#181818;stroke-width:0.5;" width="75.0586" x="200.4058" y="430.082"/><text fill="#000000" font-family="sans-serif" font-size="14" lengthAdjust="spacing" textLength="61.0586" x="207.4058" y="450.6172">Frontend</text></g><g class="participant participant-head" data-participant="Gateway"><rect fill="#E2E2F0" height="30.4883" rx="2.5" ry="2.5" style="stroke:#181818;stroke-width:0.5;" width="70.7178" x="416.7456" y="87.4883"/><text fill="#000000" font-family="sans-serif" font-size="14" lengthAdjust="spacing" textLength="56.7178" x="423.7456" y="108.0234">Gateway</text></g><g class="participant participant-tail" data-participant="Gateway"><rect fill="#E2E2F0" height="30.4883" rx="2.5" ry="2.5" style="stroke:#181818;stroke-width:0.5;" width="70.7178" x="416.7456" y="430.082"/><text fill="#000000" font-family="sans-serif" font-size="14" lengthAdjust="spacing" textLength="56.7178" x="423.7456" y="450.6172">Gateway</text></g><g class="participant participant-head" data-participant="AppSvc"><rect fill="#E2E2F0" height="30.4883" rx="2.5" ry="2.5" style="stroke:#181818;stroke-width:0.5;" width="63.2393" x="670.0298" y="87.4883"/><text fill="#000000" font-family="sans-serif" font-size="14" lengthAdjust="spacing" textLength="49.2393" x="677.0298" y="108.0234">AppSvc</text></g><g class="participant participant-tail" data-participant="AppSvc"><rect fill="#E2E2F0" height="30.4883" rx="2.5" ry="2.5" style="stroke:#181818;stroke-width:0.5;" width="63.2393" x="670.0298" y="430.082"/><text fill="#000000" font-family="sans-serif" font-size="14" lengthAdjust="spacing" textLength="49.2393" x="677.0298" y="450.6172">AppSvc</text></g><g class="participant participant-head" data-participant="Mongo"><text fill="#000000" font-family="sans-serif" font-size="14" lengthAdjust="spacing" textLength="46.6758" x="926.5298" y="116.0234">Mongo</text><path d="M934.8677,66.4883 C934.8677,56.4883 952.8677,56.4883 952.8677,56.4883 C952.8677,56.4883 970.8677,56.4883 970.8677,66.4883 L970.8677,92.4883 C970.8677,102.4883 952.8677,102.4883 952.8677,102.4883 C952.8677,102.4883 934.8677,102.4883 934.8677,92.4883 L934.8677,66.4883" fill="#E2E2F0" style="stroke:#181818;stroke-width:0.5;"/><path d="M934.8677,66.4883 C934.8677,76.4883 952.8677,76.4883 952.8677,76.4883 C952.8677,76.4883 970.8677,76.4883 970.8677,66.4883" fill="none" style="stroke:#181818;stroke-width:0.5;"/></g><g class="participant participant-tail" data-participant="Mongo"><text fill="#000000" font-family="sans-serif" font-size="14" lengthAdjust="spacing" textLength="46.6758" x="926.5298" y="443.6172">Mongo</text><path d="M934.8677,456.5703 C934.8677,446.5703 952.8677,446.5703 952.8677,446.5703 C952.8677,446.5703 970.8677,446.5703 970.8677,456.5703 L970.8677,482.5703 C970.8677,492.5703 952.8677,492.5703 952.8677,492.5703 C952.8677,492.5703 934.8677,492.5703 934.8677,482.5703 L934.8677,456.5703" fill="#E2E2F0" style="stroke:#181818;stroke-width:0.5;"/><path d="M934.8677,456.5703 C934.8677,466.5703 952.8677,466.5703 952.8677,466.5703 C952.8677,466.5703 970.8677,466.5703 970.8677,456.5703" fill="none" style="stroke:#181818;stroke-width:0.5;"/></g><g class="message" data-participant-1="WebUser" data-participant-2="Frontend"><polygon fill="#181818" points="225.9351,146.2871,235.9351,150.2871,225.9351,154.2871,229.9351,150.2871" style="stroke:#181818;stroke-width:1;"/><line style="stroke:#181818;stroke-width:1;" x1="37.4766" x2="231.9351" y1="150.2871" y2="150.2871"/><text fill="#000000" font-family="sans-serif" font-size="13" lengthAdjust="spacing" textLength="100.877" x="44.4766" y="145.5449">Click Join/Leave</text></g><g class="message" data-participant-1="Frontend" data-participant-2="Gateway"><polygon fill="#181818" points="440.1045,190.9082,450.1045,194.9082,440.1045,198.9082,444.1045,194.9082" style="stroke:#181818;stroke-width:1;"/><line style="stroke:#181818;stroke-width:1;" x1="237.9351" x2="446.1045" y1="194.9082" y2="194.9082"/><text fill="#000000" font-family="sans-serif" font-size="13" lengthAdjust="spacing" textLength="100.2168" x="244.9351" y="174.8555">PUT /group/{id}</text><text fill="#000000" font-family="sans-serif" font-size="13" lengthAdjust="spacing" textLength="190.1694" x="244.9351" y="190.166">body: updated members array</text></g><g class="message" data-participant-1="Gateway" data-participant-2="AppSvc"><polygon fill="#181818" points="689.6494,220.2188,699.6494,224.2188,689.6494,228.2188,693.6494,224.2188" style="stroke:#181818;stroke-width:1;"/><line style="stroke:#181818;stroke-width:1;" x1="452.1045" x2="695.6494" y1="224.2188" y2="224.2188"/><text fill="#000000" font-family="sans-serif" font-size="13" lengthAdjust="spacing" textLength="225.5449" x="459.1045" y="219.4766">Forward request with X-Member-ID</text></g><g class="message" data-participant-1="AppSvc" data-participant-2="AppSvc"><line style="stroke:#181818;stroke-width:1;" x1="701.6494" x2="743.6494" y1="253.5293" y2="253.5293"/><line style="stroke:#181818;stroke-width:1;" x1="743.6494" x2="743.6494" y1="253.5293" y2="266.5293"/><line style="stroke:#181818;stroke-width:1;" x1="702.6494" x2="743.6494" y1="266.5293" y2="266.5293"/><polygon fill="#181818" points="712.6494,262.5293,702.6494,266.5293,712.6494,270.5293,708.6494,266.5293" style="stroke:#181818;stroke-width:1;"/><text fill="#000000" font-family="sans-serif" font-size="13" lengthAdjust="spacing" textLength="237.2183" x="708.6494" y="248.7871">Authorize requester, merge members</text></g><g class="message" data-participant-1="AppSvc" data-participant-2="Mongo"><polygon fill="#181818" points="940.8677,291.8398,950.8677,295.8398,940.8677,299.8398,944.8677,295.8398" style="stroke:#181818;stroke-width:1;"/><line style="stroke:#181818;stroke-width:1;" x1="701.6494" x2="946.8677" y1="295.8398" y2="295.8398"/><text fill="#000000" font-family="sans-serif" font-size="13" lengthAdjust="spacing" textLength="172.5483" x="708.6494" y="291.0977">Update group members list</text></g><g class="message" data-participant-1="Mongo" data-participant-2="AppSvc"><polygon fill="#181818" points="712.6494,321.1504,702.6494,325.1504,712.6494,329.1504,708.6494,325.1504" style="stroke:#181818;stroke-width:1;"/><line style="stroke:#181818;stroke-width:1;stroke-dasharray:2,2;" x1="706.6494" x2="951.8677" y1="325.1504" y2="325.1504"/><text fill="#000000" font-family="sans-serif" font-size="13" lengthAdjust="spacing" textLength="126.7817" x="718.6494" y="320.4082">Updated group DTO</text></g><g class="message" data-participant-1="AppSvc" data-participant-2="Gateway"><polygon fill="#181818" points="463.1045,350.4609,453.1045,354.4609,463.1045,358.4609,459.1045,354.4609" style="stroke:#181818;stroke-width:1;"/><line style="stroke:#181818;stroke-width:1;stroke-dasharray:2,2;" x1="457.1045" x2="700.6494" y1="354.4609" y2="354.4609"/><text fill="#000000" font-family="sans-serif" font-size="13" lengthAdjust="spacing" textLength="47.3599" x="469.1045" y="349.7188">200 OK</text></g><g class="message" data-participant-1="Gateway" data-participant-2="Frontend"><polygon fill="#181818" points="248.9351,379.7715,238.9351,383.7715,248.9351,387.7715,244.9351,383.7715" style="stroke:#181818;stroke-width:1;"/><line style="stroke:#181818;stroke-width:1;stroke-dasharray:2,2;" x1="242.9351" x2="451.1045" y1="383.7715" y2="383.7715"/><text fill="#000000" font-family="sans-serif" font-size="13" lengthAdjust="spacing" textLength="129.4985" x="254.9351" y="379.0293">Updated group state</text></g><g class="message" data-participant-1="Frontend" data-participant-2="WebUser"><polygon fill="#181818" points="48.4766,409.082,38.4766,413.082,48.4766,417.082,44.4766,413.082" style="stroke:#181818;stroke-width:1;"/><line style="stroke:#181818;stroke-width:1;stroke-dasharray:2,2;" x1="42.4766" x2="236.9351" y1="413.082" y2="413.082"/><text fill="#000000" font-family="sans-serif" font-size="13" lengthAdjust="spacing" textLength="176.4585" x="54.4766" y="408.3398">UI reflects joined/left status</text></g><!--SRC=[LL3DJeD04BxlKym3I6Wyzc3IsD2qsjJ44ZruMTWfNTsoE3kKLEExEr90EExizy-M7SB6sp9-H7r6M96lAqYSRvJEsHEyO9O695LfOflRIfSC2VcIiJIJuqepDleokIsgwlcSAwDPPpeWR7rPUAKwJOZk1YcOmxsp-SSeYnh-1DUf2-mftKDS_CMClwtvUIipRovpg2jnGGCdF6L80JIHXEbfed3D8WA9fqQJ0SBF6WD3O_a8hz6s9KRhfUgGOywYvgCd-uKz2-b6hAZ0td34QbiAAMqZGPjroELiO7L5H6E7jCj_HI_tkq5mqlvsDeFTmt-lwOHJaS3o6Aqes7vvWQwboi5XpW7UPNCqiSC3jwGw_080]--></g></svg>