<svg xmlns="http://www.w3.org/2000/svg" xmlns:xlink="http://www.w3.org/1999/xlink" contentStyleType="text/css" data-diagram-type="SEQUENCE" height="616px" preserveAspectRatio="none" style="width:1332px;height:616px;background:#FFFFFF;" version="1.1" viewBox="0 0 1332 616" width="1332px" zoomAndPan="magnify"><title>Create Collaboration Group &amp; Notify Members</title><defs/><g><text fill="#000000" font-family="sans-serif" font-size="14" font-weight="bold" lengthAdjust="spacing" textLength="331.9258" x="499.1875" y="28.5352">Create Collaboration Group &amp; Notify Members</text><g><title>WebUser</title><rect fill="#000000" fill-opacity="0.00000" height="416.3477" width="8" x="33.4766" y="118.9766"/><line style="stroke:#181818;stroke-width:0.5;stroke-dasharray:5,5;" x1="37" x2="37" y1="118.9766" y2="535.3242"/></g><g><title>Frontend</title><rect fill="#000000" fill-opacity="0.00000" height="416.3477" width="8" x="290.9941" y="118.9766"/><line style="stroke:#181818;stroke-width:0.5;stroke-dasharray:5,5;" x1="294.4648" x2="294.4648" y1="118.9766" y2="535.3242"/></g><g><title>Gateway</title><rect fill="#000000" fill-opacity="0.00000" height="416.3477" width="8" x="402.9092" y="118.9766"/><line style="stroke:#181818;stroke-width:0.5;stroke-dasharray:5,5;" x1="406.5503" x2="406.5503" y1="118.9766" y2="535.3242"/></g><g><title>AppSvc</title><rect fill="#000000" fill-opacity="0.00000" height="416.3477" width="8" x="592.4434" y="118.9766"/><line style="stroke:#181818;stroke-width:0.5;stroke-dasharray:5,5;" x1="595.8237" x2="595.8237" y1="118.9766" y2="535.3242"/></g><g><title>Mongo</title><rect fill="#000000" fill-opacity="0.00000" height="416.3477" width="8" x="761.3984" y="118.9766"/><line style="stroke:#181818;stroke-width:0.5;stroke-dasharray:5,5;" x1="765.0605" x2="765.0605" y1="118.9766" y2="535.3242"/></g><g><title>Kafka Broker</title><rect fill="#000000" fill-opacity="0.00000" height="416.3477" width="8" x="847.9634" y="118.9766"/><line style="stroke:#181818;stroke-width:0.5;stroke-dasharray:5,5;" x1="851.7363" x2="851.7363" y1="118.9766" y2="535.3242"/></g><g><title>Notification Service</title><rect fill="#000000" fill-opacity="0.00000" height="416.3477" width="8" x="1058.2036" y="118.9766"/><line style="stroke:#181818;stroke-width:0.5;stroke-dasharray:5,5;" x1="1061.876" x2="1061.876" y1="118.9766" y2="535.3242"/></g><g><title>MailerSend API</title><rect fill="#000000" fill-opacity="0.00000" height="416.3477" width="8" x="1265.2446" y="118.9766"/><line style="stroke:#181818;stroke-width:0.5;stroke-dasharray:5,5;" x1="1269.1885" x2="1269.1885" y1="118.9766" y2="535.3242"/></g><g class="participant participant-head" data-participant="WebUser"><text fill="#000000" font-family="sans-serif" font-size="14" lengthAdjust="spacing" textLength="58.9531" x="5" y="116.0234">WebUser</text><ellipse cx="37.4766" cy="50.9883" fill="#E2E2F0" rx="8" ry="8" style="stroke:#181818;stroke-width:0.5;"/><path d="M37.4766,58.9883 L37.4766,85.9883 M24.4766,66.9883 L50.4766,66.9883 M37.4766,85.9883 L24.4766,100.9883 M37.4766,85.9883 L50.4766,100.9883" fill="none" style="stroke:#181818;stroke-width:0.5;"/></g><g class="participant participant-tail" data-participant="WebUser"><text fill="#000000" font-family="sans-serif" font-size="14" lengthAdjust="spacing" textLength="58.9531" x="5" y="547.8594">WebUser</text><ellipse cx="37.4766" cy="559.3125" fill="#E2E2F0" rx="8" ry="8" style="stroke:#181818;stroke-width:0.5;"/><path d="M37.4766,567.3125 L37.4766,594.3125 M24.4766,575.3125 L50.4766,575.3125 M37.4766,594.3125 L24.4766,609.3125 M37.4766,594.3125 L50.4766,609.3125" fill="none" style="stroke:#181818;stroke-width:0.5;"/></g><g class="participant participant-head" data-participant="Frontend"><rect fill="#E2E2F0" height="30.4883" rx="2.5" ry="2.5" style="stroke:#181818;stroke-width:0.5;" width="75.0586" x="257.4648" y="87.4883"/><text fill="#000000" font-family="sans-serif" font-size="14" lengthAdjust="spacing" textLength="61.0586" x="264.4648" y="108.0234">Frontend</text></g><g class="participant participant-tail" data-participant="Frontend"><rect fill="#E2E2F0" height="30.4883" rx="2.5" ry="2.5" style="stroke:#181818;stroke-width:0.5;" width="75.0586" x="257.4648" y="534.3242"/><text fill="#000000" font-family="sans-serif" font-size="14" lengthAdjust="spacing" textLength="61.0586" x="264.4648" y="554.8594">Frontend</text></g><g class="participant participant-head" data-participant="Gateway"><rect fill="#E2E2F0" height="30.4883" rx="2.5" ry="2.5" style="stroke:#181818;stroke-width:0.5;" width="70.7178" x="371.5503" y="87.4883"/><text fill="#000000" font-family="sans-serif" font-size="14" lengthAdjust="spacing" textLength="56.7178" x="378.5503" y="108.0234">Gateway</text></g><g class="participant participant-tail" data-participant="Gateway"><rect fill="#E2E2F0" height="30.4883" rx="2.5" ry="2.5" style="stroke:#181818;stroke-width:0.5;" width="70.7178" x="371.5503" y="534.3242"/><text fill="#000000" font-family="sans-serif" font-size="14" lengthAdjust="spacing" textLength="56.7178" x="378.5503" y="554.8594">Gateway</text></g><g class="participant participant-head" data-participant="AppSvc"><rect fill="#E2E2F0" height="30.4883" rx="2.5" ry="2.5" style="stroke:#181818;stroke-width:0.5;" width="63.2393" x="564.8237" y="87.4883"/><text fill="#000000" font-family="sans-serif" font-size="14" lengthAdjust="spacing" textLength="49.2393" x="571.8237" y="108.0234">AppSvc</text></g><g class="participant participant-tail" data-participant="AppSvc"><rect fill="#E2E2F0" height="30.4883" rx="2.5" ry="2.5" style="stroke:#181818;stroke-width:0.5;" width="63.2393" x="564.8237" y="534.3242"/><text fill="#000000" font-family="sans-serif" font-size="14" lengthAdjust="spacing" textLength="49.2393" x="571.8237" y="554.8594">AppSvc</text></g><g class="participant participant-head" data-participant="Mongo"><text fill="#000000" font-family="sans-serif" font-size="14" lengthAdjust="spacing" textLength="46.6758" x="739.0605" y="116.0234">Mongo</text><path d="M747.3984,66.4883 C747.3984,56.4883 765.3984,56.4883 765.3984,56.4883 C765.3984,56.4883 783.3984,56.4883 783.3984,66.4883 L783.3984,92.4883 C783.3984,102.4883 765.3984,102.4883 765.3984,102.4883 C765.3984,102.4883 747.3984,102.4883 747.3984,92.4883 L747.3984,66.4883" fill="#E2E2F0" style="stroke:#181818;stroke-width:0.5;"/><path d="M747.3984,66.4883 C747.3984,76.4883 765.3984,76.4883 765.3984,76.4883 C765.3984,76.4883 783.3984,76.4883 783.3984,66.4883" fill="none" style="stroke:#181818;stroke-width:0.5;"/></g><g class="participant participant-tail" data-participant="Mongo"><text fill="#000000" font-family="sans-serif" font-size="14" lengthAdjust="spacing" textLength="46.6758" x="739.0605" y="547.8594">Mongo</text><path d="M747.3984,560.8125 C747.3984,550.8125 765.3984,550.8125 765.3984,550.8125 C765.3984,550.8125 783.3984,550.8125 783.3984,560.8125 L783.3984,586.8125 C783.3984,596.8125 765.3984,596.8125 765.3984,596.8125 C765.3984,596.8125 747.3984,596.8125 747.3984,586.8125 L747.3984,560.8125" fill="#E2E2F0" style="stroke:#181818;stroke-width:0.5;"/><path d="M747.3984,560.8125 C747.3984,570.8125 765.3984,570.8125 765.3984,570.8125 C765.3984,570.8125 783.3984,570.8125 783.3984,560.8125" fill="none" style="stroke:#181818;stroke-width:0.5;"/></g><g class="participant participant-head" data-participant="Kafka"><rect fill="#E2E2F0" height="30.4883" rx="2.5" ry="2.5" style="stroke:#181818;stroke-width:0.5;" width="100.4541" x="801.7363" y="87.4883"/><text fill="#000000" font-family="sans-serif" font-size="14" lengthAdjust="spacing" textLength="86.4541" x="808.7363" y="108.0234">Kafka Broker</text></g><g class="participant participant-tail" data-participant="Kafka"><rect fill="#E2E2F0" height="30.4883" rx="2.5" ry="2.5" style="stroke:#181818;stroke-width:0.5;" width="100.4541" x="801.7363" y="534.3242"/><text fill="#000000" font-family="sans-serif" font-size="14" lengthAdjust="spacing" textLength="86.4541" x="808.7363" y="554.8594">Kafka Broker</text></g><g class="participant participant-head" data-participant="Notifier"><rect fill="#E2E2F0" height="30.4883" rx="2.5" ry="2.5" style="stroke:#181818;stroke-width:0.5;" width="144.6553" x="989.876" y="87.4883"/><text fill="#000000" font-family="sans-serif" font-size="14" lengthAdjust="spacing" textLength="130.6553" x="996.876" y="108.0234">Notification Service</text></g><g class="participant participant-tail" data-participant="Notifier"><rect fill="#E2E2F0" height="30.4883" rx="2.5" ry="2.5" style="stroke:#181818;stroke-width:0.5;" width="144.6553" x="989.876" y="534.3242"/><text fill="#000000" font-family="sans-serif" font-size="14" lengthAdjust="spacing" textLength="130.6553" x="996.876" y="554.8594">Notification Service</text></g><g class="participant participant-head" data-participant="Mailer"><rect fill="#E2E2F0" height="30.4883" rx="2.5" ry="2.5" style="stroke:#181818;stroke-width:0.5;" width="114.1123" x="1212.1885" y="87.4883"/><text fill="#000000" font-family="sans-serif" font-size="14" lengthAdjust="spacing" textLength="100.1123" x="1219.1885" y="108.0234">MailerSend API</text></g><g class="participant participant-tail" data-participant="Mailer"><rect fill="#E2E2F0" height="30.4883" rx="2.5" ry="2.5" style="stroke:#181818;stroke-width:0.5;" width="114.1123" x="1212.1885" y="534.3242"/><text fill="#000000" font-family="sans-serif" font-size="14" lengthAdjust="spacing" textLength="100.1123" x="1219.1885" y="554.8594">MailerSend API</text></g><g class="message" data-participant-1="WebUser" data-participant-2="Frontend"><polygon fill="#181818" points="282.9941,146.2871,292.9941,150.2871,282.9941,154.2871,286.9941,150.2871" style="stroke:#181818;stroke-width:1;"/><line style="stroke:#181818;stroke-width:1;" x1="37.4766" x2="288.9941" y1="150.2871" y2="150.2871"/><text fill="#000000" font-family="sans-serif" font-size="13" lengthAdjust="spacing" textLength="233.5176" x="44.4766" y="145.5449">Fill group form (title, tags, members)</text></g><g class="message" data-participant-1="Frontend" data-participant-2="Gateway"><polygon fill="#181818" points="394.9092,175.5977,404.9092,179.5977,394.9092,183.5977,398.9092,179.5977" style="stroke:#181818;stroke-width:1;"/><line style="stroke:#181818;stroke-width:1;" x1="294.9941" x2="400.9092" y1="179.5977" y2="179.5977"/><text fill="#000000" font-family="sans-serif" font-size="13" lengthAdjust="spacing" textLength="87.915" x="301.9941" y="174.8555">POST /group/</text></g><g class="message" data-participant-1="Gateway" data-participant-2="AppSvc"><polygon fill="#181818" points="584.4434,204.9082,594.4434,208.9082,584.4434,212.9082,588.4434,208.9082" style="stroke:#181818;stroke-width:1;"/><line style="stroke:#181818;stroke-width:1;" x1="406.9092" x2="590.4434" y1="208.9082" y2="208.9082"/><text fill="#000000" font-family="sans-serif" font-size="13" lengthAdjust="spacing" textLength="102.6289" x="413.9092" y="204.166">Forward request</text></g><g class="message" data-participant-1="AppSvc" data-participant-2="Mongo"><polygon fill="#181818" points="753.3984,234.2188,763.3984,238.2188,753.3984,242.2188,757.3984,238.2188" style="stroke:#181818;stroke-width:1;"/><line style="stroke:#181818;stroke-width:1;" x1="596.4434" x2="759.3984" y1="238.2188" y2="238.2188"/><text fill="#000000" font-family="sans-serif" font-size="13" lengthAdjust="spacing" textLength="144.9551" x="603.4434" y="233.4766">Insert group document</text></g><g class="message" data-participant-1="Mongo" data-participant-2="AppSvc"><polygon fill="#181818" points="607.4434,263.5293,597.4434,267.5293,607.4434,271.5293,603.4434,267.5293" style="stroke:#181818;stroke-width:1;"/><line style="stroke:#181818;stroke-width:1;stroke-dasharray:2,2;" x1="601.4434" x2="764.3984" y1="267.5293" y2="267.5293"/><text fill="#000000" font-family="sans-serif" font-size="13" lengthAdjust="spacing" textLength="114.5371" x="613.4434" y="262.7871">Stored group DTO</text></g><g class="message" data-participant-1="AppSvc" data-participant-2="Kafka"><polygon fill="#181818" points="839.9634,308.1504,849.9634,312.1504,839.9634,316.1504,843.9634,312.1504" style="stroke:#181818;stroke-width:1;"/><line style="stroke:#181818;stroke-width:1;" x1="596.4434" x2="845.9634" y1="312.1504" y2="312.1504"/><text fill="#000000" font-family="sans-serif" font-size="13" lengthAdjust="spacing" textLength="177.2393" x="603.4434" y="292.0977">Publish NotificationMessage</text><text fill="#000000" font-family="sans-serif" font-size="13" lengthAdjust="spacing" textLength="197.1519" x="603.4434" y="307.4082">(type=email, subject, message)</text></g><g class="message" data-participant-1="Kafka" data-participant-2="Notifier"><polygon fill="#181818" points="1050.2036,337.4609,1060.2036,341.4609,1050.2036,345.4609,1054.2036,341.4609" style="stroke:#181818;stroke-width:1;"/><line style="stroke:#181818;stroke-width:1;stroke-dasharray:2,2;" x1="851.9634" x2="1056.2036" y1="341.4609" y2="341.4609"/><text fill="#000000" font-family="sans-serif" font-size="13" lengthAdjust="spacing" textLength="186.2402" x="858.9634" y="336.7188">Deliver message to consumer</text></g><g class="message" data-participant-1="Notifier" data-participant-2="Mailer"><polygon fill="#181818" points="1257.2446,366.7715,1267.2446,370.7715,1257.2446,374.7715,1261.2446,370.7715" style="stroke:#181818;stroke-width:1;"/><line style="stroke:#181818;stroke-width:1;" x1="1062.2036" x2="1263.2446" y1="370.7715" y2="370.7715"/><text fill="#000000" font-family="sans-serif" font-size="13" lengthAdjust="spacing" textLength="183.041" x="1069.2036" y="366.0293">POST /email (MailerSend API)</text></g><g class="message" data-participant-1="Mailer" data-participant-2="Notifier"><polygon fill="#181818" points="1073.2036,396.082,1063.2036,400.082,1073.2036,404.082,1069.2036,400.082" style="stroke:#181818;stroke-width:1;"/><line style="stroke:#181818;stroke-width:1;stroke-dasharray:2,2;" x1="1067.2036" x2="1268.2446" y1="400.082" y2="400.082"/><text fill="#000000" font-family="sans-serif" font-size="13" lengthAdjust="spacing" textLength="86.2773" x="1079.2036" y="395.3398">2xx Accepted</text></g><g class="message" data-participant-1="Notifier" data-participant-2="Kafka"><polygon fill="#181818" points="862.9634,425.3926,852.9634,429.3926,862.9634,433.3926,858.9634,429.3926" style="stroke:#181818;stroke-width:1;"/><line style="stroke:#181818;stroke-width:1;stroke-dasharray:2,2;" x1="856.9634" x2="1061.2036" y1="429.3926" y2="429.3926"/><text fill="#000000" font-family="sans-serif" font-size="13" lengthAdjust="spacing" textLength="90.2637" x="868.9634" y="424.6504">Commit offset</text></g><g class="message" data-participant-1="AppSvc" data-participant-2="Gateway"><polygon fill="#181818" points="417.9092,454.7031,407.9092,458.7031,417.9092,462.7031,413.9092,458.7031" style="stroke:#181818;stroke-width:1;"/><line style="stroke:#181818;stroke-width:1;stroke-dasharray:2,2;" x1="411.9092" x2="595.4434" y1="458.7031" y2="458.7031"/><text fill="#000000" font-family="sans-serif" font-size="13" lengthAdjust="spacing" textLength="165.5342" x="423.9092" y="453.9609">201 Created + group data</text></g><g class="message" data-participant-1="Gateway" data-participant-2="Frontend"><polygon fill="#181818" points="305.9941,484.0137,295.9941,488.0137,305.9941,492.0137,301.9941,488.0137" style="stroke:#181818;stroke-width:1;"/><line style="stroke:#181818;stroke-width:1;stroke-dasharray:2,2;" x1="299.9941" x2="405.9092" y1="488.0137" y2="488.0137"/><text fill="#000000" font-family="sans-serif" font-size="13" lengthAdjust="spacing" textLength="60.1948" x="311.9941" y="483.2715">Response</text></g><g class="message" data-participant-1="Frontend" data-participant-2="WebUser"><polygon fill="#181818" points="48.4766,513.3242,38.4766,517.3242,48.4766,521.3242,44.4766,517.3242" style="stroke:#181818;stroke-width:1;"/><line style="stroke:#181818;stroke-width:1;stroke-dasharray:2,2;" x1="42.4766" x2="293.9941" y1="517.3242" y2="517.3242"/><text fill="#000000" font-family="sans-serif" font-size="13" lengthAdjust="spacing" textLength="221.3174" x="54.4766" y="512.582">Show "Group created" confirmation</text></g><!--SRC=[NLF1Rjim3BthAmWVYWHBqQt70HkGjMXH35cBkSKkkyWodQgrJO-Ya-RlHqjEQlTaWNnyUkzH5YyrmXMZ5VrGNTk2s8gd5cwP-WxEu1U9hmwmmQP03iOw8OO_M3m5PDDP5kzyPrk16wPMi2rdnLibtjl3hBRkkdpdJ6d55ZOWRAZTqWoH_RJLguKVJA_86TW0iJ37H67U9RKvyiuxZDZK-A0ksrXV8-Sg4DOFTn6OIiQCRk3y-ya4V8KRNzUmZIbKn0qiP0Xh1MAtOGLDocDfJXCwFRhLuOVx_14kulI5EPOLaRmFxCHxooKm_kinY1aR2ebnAEAkLKqoAYZ9zGssObBtV4gLwqQm787NZ_SJhfIZokcBseTdc6QsmH3i5l-s2pbq-0qRJMC5eIzUqCbWCBQN9d4CDnw3LS9hhFrEJoCAXC1H6rGZcnDiC1CZFWKIBu75V1TBCw8-t77vzWPhvx0JB2Ua4rjNr3HUWAegu7k4iqLSVluolkyIFXt3r9VtlfJvrdzZwDG8JlQgWECBqR2VQGzP-ZbSuiq6wvNd9iRw7m00]--></g></svg>