<svg xmlns="http://www.w3.org/2000/svg" xmlns:xlink="http://www.w3.org/1999/xlink" contentStyleType="text/css" data-diagram-type="SEQUENCE" height="528px" preserveAspectRatio="none" style="width:889px;height:528px;background:#FFFFFF;" version="1.1" viewBox="0 0 889 528" width="889px" zoomAndPan="magnify"><title>Create Bulletin with Image &amp; Group Links</title><defs/><g><text fill="#000000" font-family="sans-serif" font-size="14" font-weight="bold" lengthAdjust="spacing" textLength="297.7666" x="293.2998" y="28.5352">Create Bulletin with Image &amp; Group Links</text><g><title>WebUser</title><rect fill="#000000" fill-opacity="0.00000" height="328.416" width="8" x="33.4766" y="118.9766"/><line style="stroke:#181818;stroke-width:0.5;stroke-dasharray:5,5;" x1="37" x2="37" y1="118.9766" y2="447.3926"/></g><g><title>Frontend</title><rect fill="#000000" fill-opacity="0.00000" height="328.416" width="8" x="274.687" y="118.9766"/><line style="stroke:#181818;stroke-width:0.5;stroke-dasharray:5,5;" x1="278.1577" x2="278.1577" y1="118.9766" y2="447.3926"/></g><g><title>Gateway</title><rect fill="#000000" fill-opacity="0.00000" height="328.416" width="8" x="412.2529" y="118.9766"/><line style="stroke:#181818;stroke-width:0.5;stroke-dasharray:5,5;" x1="415.894" x2="415.894" y1="118.9766" y2="447.3926"/></g><g><title>AppSvc</title><rect fill="#000000" fill-opacity="0.00000" height="328.416" width="8" x="538.8818" y="118.9766"/><line style="stroke:#181818;stroke-width:0.5;stroke-dasharray:5,5;" x1="542.2622" x2="542.2622" y1="118.9766" y2="447.3926"/></g><g><title>S3</title><rect fill="#000000" fill-opacity="0.00000" height="328.416" width="8" x="798.4941" y="118.9766"/><line style="stroke:#181818;stroke-width:0.5;stroke-dasharray:5,5;" x1="802.2979" x2="802.2979" y1="118.9766" y2="447.3926"/></g><g><title>Mongo</title><rect fill="#000000" fill-opacity="0.00000" height="328.416" width="8" x="850.0283" y="118.9766"/><line style="stroke:#181818;stroke-width:0.5;stroke-dasharray:5,5;" x1="853.6904" x2="853.6904" y1="118.9766" y2="447.3926"/></g><g class="participant participant-head" data-participant="WebUser"><text fill="#000000" font-family="sans-serif" font-size="14" lengthAdjust="spacing" textLength="58.9531" x="5" y="116.0234">WebUser</text><ellipse cx="37.4766" cy="50.9883" fill="#E2E2F0" rx="8" ry="8" style="stroke:#181818;stroke-width:0.5;"/><path d="M37.4766,58.9883 L37.4766,85.9883 M24.4766,66.9883 L50.4766,66.9883 M37.4766,85.9883 L24.4766,100.9883 M37.4766,85.9883 L50.4766,100.9883" fill="none" style="stroke:#181818;stroke-width:0.5;"/></g><g class="participant participant-tail" data-participant="WebUser"><text fill="#000000" font-family="sans-serif" font-size="14" lengthAdjust="spacing" textLength="58.9531" x="5" y="459.9277">WebUser</text><ellipse cx="37.4766" cy="471.3809" fill="#E2E2F0" rx="8" ry="8" style="stroke:#181818;stroke-width:0.5;"/><path d="M37.4766,479.3809 L37.4766,506.3809 M24.4766,487.3809 L50.4766,487.3809 M37.4766,506.3809 L24.4766,521.3809 M37.4766,506.3809 L50.4766,521.3809" fill="none" style="stroke:#181818;stroke-width:0.5;"/></g><g class="participant participant-head" data-participant="Frontend"><rect fill="#E2E2F0" height="30.4883" rx="2.5" ry="2.5" style="stroke:#181818;stroke-width:0.5;" width="75.0586" x="241.1577" y="87.4883"/><text fill="#000000" font-family="sans-serif" font-size="14" lengthAdjust="spacing" textLength="61.0586" x="248.1577" y="108.0234">Frontend</text></g><g class="participant participant-tail" data-participant="Frontend"><rect fill="#E2E2F0" height="30.4883" rx="2.5" ry="2.5" style="stroke:#181818;stroke-width:0.5;" width="75.0586" x="241.1577" y="446.3926"/><text fill="#000000" font-family="sans-serif" font-size="14" lengthAdjust="spacing" textLength="61.0586" x="248.1577" y="466.9277">Frontend</text></g><g class="participant participant-head" data-participant="Gateway"><rect fill="#E2E2F0" height="30.4883" rx="2.5" ry="2.5" style="stroke:#181818;stroke-width:0.5;" width="70.7178" x="380.894" y="87.4883"/><text fill="#000000" font-family="sans-serif" font-size="14" lengthAdjust="spacing" textLength="56.7178" x="387.894" y="108.0234">Gateway</text></g><g class="participant participant-tail" data-participant="Gateway"><rect fill="#E2E2F0" height="30.4883" rx="2.5" ry="2.5" style="stroke:#181818;stroke-width:0.5;" width="70.7178" x="380.894" y="446.3926"/><text fill="#000000" font-family="sans-serif" font-size="14" lengthAdjust="spacing" textLength="56.7178" x="387.894" y="466.9277">Gateway</text></g><g class="participant participant-head" data-participant="AppSvc"><rect fill="#E2E2F0" height="30.4883" rx="2.5" ry="2.5" style="stroke:#181818;stroke-width:0.5;" width="63.2393" x="511.2622" y="87.4883"/><text fill="#000000" font-family="sans-serif" font-size="14" lengthAdjust="spacing" textLength="49.2393" x="518.2622" y="108.0234">AppSvc</text></g><g class="participant participant-tail" data-participant="AppSvc"><rect fill="#E2E2F0" height="30.4883" rx="2.5" ry="2.5" style="stroke:#181818;stroke-width:0.5;" width="63.2393" x="511.2622" y="446.3926"/><text fill="#000000" font-family="sans-serif" font-size="14" lengthAdjust="spacing" textLength="49.2393" x="518.2622" y="466.9277">AppSvc</text></g><g class="participant participant-head" data-participant="S3"><rect fill="#E2E2F0" height="30.4883" rx="2.5" ry="2.5" style="stroke:#181818;stroke-width:0.5;" width="30.3926" x="787.2979" y="87.4883"/><text fill="#000000" font-family="sans-serif" font-size="14" lengthAdjust="spacing" textLength="16.3926" x="794.2979" y="108.0234">S3</text></g><g class="participant participant-tail" data-participant="S3"><rect fill="#E2E2F0" height="30.4883" rx="2.5" ry="2.5" style="stroke:#181818;stroke-width:0.5;" width="30.3926" x="787.2979" y="446.3926"/><text fill="#000000" font-family="sans-serif" font-size="14" lengthAdjust="spacing" textLength="16.3926" x="794.2979" y="466.9277">S3</text></g><g class="participant participant-head" data-participant="Mongo"><text fill="#000000" font-family="sans-serif" font-size="14" lengthAdjust="spacing" textLength="46.6758" x="827.6904" y="116.0234">Mongo</text><path d="M836.0283,66.4883 C836.0283,56.4883 854.0283,56.4883 854.0283,56.4883 C854.0283,56.4883 872.0283,56.4883 872.0283,66.4883 L872.0283,92.4883 C872.0283,102.4883 854.0283,102.4883 854.0283,102.4883 C854.0283,102.4883 836.0283,102.4883 836.0283,92.4883 L836.0283,66.4883" fill="#E2E2F0" style="stroke:#181818;stroke-width:0.5;"/><path d="M836.0283,66.4883 C836.0283,76.4883 854.0283,76.4883 854.0283,76.4883 C854.0283,76.4883 872.0283,76.4883 872.0283,66.4883" fill="none" style="stroke:#181818;stroke-width:0.5;"/></g><g class="participant participant-tail" data-participant="Mongo"><text fill="#000000" font-family="sans-serif" font-size="14" lengthAdjust="spacing" textLength="46.6758" x="827.6904" y="459.9277">Mongo</text><path d="M836.0283,472.8809 C836.0283,462.8809 854.0283,462.8809 854.0283,462.8809 C854.0283,462.8809 872.0283,462.8809 872.0283,472.8809 L872.0283,498.8809 C872.0283,508.8809 854.0283,508.8809 854.0283,508.8809 C854.0283,508.8809 836.0283,508.8809 836.0283,498.8809 L836.0283,472.8809" fill="#E2E2F0" style="stroke:#181818;stroke-width:0.5;"/><path d="M836.0283,472.8809 C836.0283,482.8809 854.0283,482.8809 854.0283,482.8809 C854.0283,482.8809 872.0283,482.8809 872.0283,472.8809" fill="none" style="stroke:#181818;stroke-width:0.5;"/></g><g class="message" data-participant-1="WebUser" data-participant-2="Frontend"><polygon fill="#181818" points="266.687,146.2871,276.687,150.2871,266.687,154.2871,270.687,150.2871" style="stroke:#181818;stroke-width:1;"/><line style="stroke:#181818;stroke-width:1;" x1="37.4766" x2="272.687" y1="150.2871" y2="150.2871"/><text fill="#000000" font-family="sans-serif" font-size="13" lengthAdjust="spacing" textLength="217.2104" x="44.4766" y="145.5449">Compose bulletin + upload poster</text></g><g class="message" data-participant-1="Frontend" data-participant-2="Gateway"><polygon fill="#181818" points="404.2529,190.9082,414.2529,194.9082,404.2529,198.9082,408.2529,194.9082" style="stroke:#181818;stroke-width:1;"/><line style="stroke:#181818;stroke-width:1;" x1="278.687" x2="410.2529" y1="194.9082" y2="194.9082"/><text fill="#000000" font-family="sans-serif" font-size="13" lengthAdjust="spacing" textLength="97.9507" x="285.687" y="174.8555">POST /bulletin/</text><text fill="#000000" font-family="sans-serif" font-size="13" lengthAdjust="spacing" textLength="100.915" x="285.687" y="190.166">(multipart form)</text></g><g class="message" data-participant-1="Gateway" data-participant-2="AppSvc"><polygon fill="#181818" points="530.8818,220.2188,540.8818,224.2188,530.8818,228.2188,534.8818,224.2188" style="stroke:#181818;stroke-width:1;"/><line style="stroke:#181818;stroke-width:1;" x1="416.2529" x2="536.8818" y1="224.2188" y2="224.2188"/><text fill="#000000" font-family="sans-serif" font-size="13" lengthAdjust="spacing" textLength="102.6289" x="423.2529" y="219.4766">Forward request</text></g><g class="message" data-participant-1="AppSvc" data-participant-2="S3"><polygon fill="#181818" points="790.4941,249.5293,800.4941,253.5293,790.4941,257.5293,794.4941,253.5293" style="stroke:#181818;stroke-width:1;"/><line style="stroke:#181818;stroke-width:1;" x1="542.8818" x2="796.4941" y1="253.5293" y2="253.5293"/><text fill="#000000" font-family="sans-serif" font-size="13" lengthAdjust="spacing" textLength="235.6123" x="549.8818" y="248.7871">Upload poster image (if file provided)</text></g><g class="message" data-participant-1="S3" data-participant-2="AppSvc"><polygon fill="#181818" points="553.8818,278.8398,543.8818,282.8398,553.8818,286.8398,549.8818,282.8398" style="stroke:#181818;stroke-width:1;"/><line style="stroke:#181818;stroke-width:1;stroke-dasharray:2,2;" x1="547.8818" x2="801.4941" y1="282.8398" y2="282.8398"/><text fill="#000000" font-family="sans-serif" font-size="13" lengthAdjust="spacing" textLength="108.418" x="559.8818" y="278.0977">Public image URL</text></g><g class="message" data-participant-1="AppSvc" data-participant-2="Mongo"><polygon fill="#181818" points="842.0283,308.1504,852.0283,312.1504,842.0283,316.1504,846.0283,312.1504" style="stroke:#181818;stroke-width:1;"/><line style="stroke:#181818;stroke-width:1;" x1="542.8818" x2="848.0283" y1="312.1504" y2="312.1504"/><text fill="#000000" font-family="sans-serif" font-size="13" lengthAdjust="spacing" textLength="154.9907" x="549.8818" y="307.4082">Insert bulletin document</text></g><g class="message" data-participant-1="Mongo" data-participant-2="AppSvc"><polygon fill="#181818" points="553.8818,337.4609,543.8818,341.4609,553.8818,345.4609,549.8818,341.4609" style="stroke:#181818;stroke-width:1;"/><line style="stroke:#181818;stroke-width:1;stroke-dasharray:2,2;" x1="547.8818" x2="853.0283" y1="341.4609" y2="341.4609"/><text fill="#000000" font-family="sans-serif" font-size="13" lengthAdjust="spacing" textLength="124.5728" x="559.8818" y="336.7188">Stored bulletin DTO</text></g><g class="message" data-participant-1="AppSvc" data-participant-2="Gateway"><polygon fill="#181818" points="427.2529,366.7715,417.2529,370.7715,427.2529,374.7715,423.2529,370.7715" style="stroke:#181818;stroke-width:1;"/><line style="stroke:#181818;stroke-width:1;stroke-dasharray:2,2;" x1="421.2529" x2="541.8818" y1="370.7715" y2="370.7715"/><text fill="#000000" font-family="sans-serif" font-size="13" lengthAdjust="spacing" textLength="77.7969" x="433.2529" y="366.0293">201 Created</text></g><g class="message" data-participant-1="Gateway" data-participant-2="Frontend"><polygon fill="#181818" points="289.687,396.082,279.687,400.082,289.687,404.082,285.687,400.082" style="stroke:#181818;stroke-width:1;"/><line style="stroke:#181818;stroke-width:1;stroke-dasharray:2,2;" x1="283.687" x2="415.2529" y1="400.082" y2="400.082"/><text fill="#000000" font-family="sans-serif" font-size="13" lengthAdjust="spacing" textLength="113.5659" x="295.687" y="395.3398">Response payload</text></g><g class="message" data-participant-1="Frontend" data-participant-2="WebUser"><polygon fill="#181818" points="48.4766,425.3926,38.4766,429.3926,48.4766,433.3926,44.4766,429.3926" style="stroke:#181818;stroke-width:1;"/><line style="stroke:#181818;stroke-width:1;stroke-dasharray:2,2;" x1="42.4766" x2="277.687" y1="429.3926" y2="429.3926"/><text fill="#000000" font-family="sans-serif" font-size="13" lengthAdjust="spacing" textLength="187.605" x="54.4766" y="424.6504">Show bulletin detail / redirect</text></g><!--SRC=[LL5DRy8m3BtdL_WqWIRKRTnscBGnWP2OG1IqoovfOo1Q6sUfGyM_du4MsglzFloUsNA1C0ce6U4Z5WMoTL1RFi2yr7k41vW5YXuMrlrMIkTC0RunsrOObDU1RMwzTWpJG8xHcTvm9ggrFlLcxzwdnxmtIiVAQDQPhX2-oEr9gSO2HcytPNY52PMU19IrXpv2z0Lf0p9ckUY65LvZBhJLCjr0qfAI7pSeOy7sV0BiA9H3rMA5ThrFM5CAjGu60lv5h5Wr2u6aOrblkyPWBsKDx0vsLWhrWOxMe1agmOwwggkO5JPlyDlreYDxYIwGkPFaV0zfA8ybEbPNG4ykbN-WkMC_DykROg-3bwVdvitcdhRVxXehJ-8DNf_EsJfj2h3zY7WUgEvSXwnj0OdqP6p0dFy1]--></g></svg>