<svg xmlns="http://www.w3.org/2000/svg" xmlns:xlink="http://www.w3.org/1999/xlink" contentStyleType="text/css" data-diagram-type="SEQUENCE" height="672px" preserveAspectRatio="none" style="width:1388px;height:672px;background:#FFFFFF;" version="1.1" viewBox="0 0 1388 672" width="1388px" zoomAndPan="magnify"><title>GraphQL Group Search</title><defs/><g><text fill="#000000" font-family="sans-serif" font-size="14" font-weight="bold" lengthAdjust="spacing" textLength="164.0625" x="609.9304" y="28.5352">GraphQL Group Search</text><g><title>WebUser</title><rect fill="#000000" fill-opacity="0.00000" height="472.6582" width="8" x="33.4766" y="118.9766"/><line style="stroke:#181818;stroke-width:0.5;stroke-dasharray:5,5;" x1="37" x2="37" y1="118.9766" y2="591.6348"/></g><g><title>Frontend</title><rect fill="#000000" fill-opacity="0.00000" height="472.6582" width="8" x="288.3599" y="118.9766"/><line style="stroke:#181818;stroke-width:0.5;stroke-dasharray:5,5;" x1="291.8306" x2="291.8306" y1="118.9766" y2="591.6348"/></g><g><title>Gateway</title><rect fill="#000000" fill-opacity="0.00000" height="472.6582" width="8" x="497.9717" y="118.9766"/><line style="stroke:#181818;stroke-width:0.5;stroke-dasharray:5,5;" x1="501.6128" x2="501.6128" y1="118.9766" y2="591.6348"/></g><g><title>Search Service</title><rect fill="#000000" fill-opacity="0.00000" height="472.6582" width="8" x="683.8877" y="118.9766"/><line style="stroke:#181818;stroke-width:0.5;stroke-dasharray:5,5;" x1="687.6772" x2="687.6772" y1="118.9766" y2="591.6348"/></g><g><title>GroupSearchService</title><rect fill="#000000" fill-opacity="0.00000" height="472.6582" width="8" x="889.4561" y="118.9766"/><line style="stroke:#181818;stroke-width:0.5;stroke-dasharray:5,5;" x1="892.4878" x2="892.4878" y1="118.9766" y2="591.6348"/></g><g><title>Group HTTP Client</title><rect fill="#000000" fill-opacity="0.00000" height="472.6582" width="8" x="1066.8955" y="118.9766"/><line style="stroke:#181818;stroke-width:0.5;stroke-dasharray:5,5;" x1="1070.875" x2="1070.875" y1="118.9766" y2="591.6348"/></g><g><title>AppSvc</title><rect fill="#000000" fill-opacity="0.00000" height="472.6582" width="8" x="1178.5356" y="118.9766"/><line style="stroke:#181818;stroke-width:0.5;stroke-dasharray:5,5;" x1="1181.916" x2="1181.916" y1="118.9766" y2="591.6348"/></g><g><title>Mongo</title><rect fill="#000000" fill-opacity="0.00000" height="472.6582" width="8" x="1349.5854" y="118.9766"/><line style="stroke:#181818;stroke-width:0.5;stroke-dasharray:5,5;" x1="1353.2476" x2="1353.2476" y1="118.9766" y2="591.6348"/></g><g class="participant participant-head" data-participant="WebUser"><text fill="#000000" font-family="sans-serif" font-size="14" lengthAdjust="spacing" textLength="58.9531" x="5" y="116.0234">WebUser</text><ellipse cx="37.4766" cy="50.9883" fill="#E2E2F0" rx="8" ry="8" style="stroke:#181818;stroke-width:0.5;"/><path d="M37.4766,58.9883 L37.4766,85.9883 M24.4766,66.9883 L50.4766,66.9883 M37.4766,85.9883 L24.4766,100.9883 M37.4766,85.9883 L50.4766,100.9883" fill="none" style="stroke:#181818;stroke-width:0.5;"/></g><g class="participant participant-tail" data-participant="WebUser"><text fill="#000000" font-family="sans-serif" font-size="14" lengthAdjust="spacing" textLength="58.9531" x="5" y="604.1699">WebUser</text><ellipse cx="37.4766" cy="615.623" fill="#E2E2F0" rx="8" ry="8" style="stroke:#181818;stroke-width:0.5;"/><path d="M37.4766,623.623 L37.4766,650.623 M24.4766,631.623 L50.4766,631.623 M37.4766,650.623 L24.4766,665.623 M37.4766,650.623 L50.4766,665.623" fill="none" style="stroke:#181818;stroke-width:0.5;"/></g><g class="participant participant-head" data-participant="Frontend"><rect fill="#E2E2F0" height="30.4883" rx="2.5" ry="2.5" style="stroke:#181818;stroke-width:0.5;" width="75.0586" x="254.8306" y="87.4883"/><text fill="#000000" font-family="sans-serif" font-size="14" lengthAdjust="spacing" textLength="61.0586" x="261.8306" y="108.0234">Frontend</text></g><g class="participant participant-tail" data-participant="Frontend"><rect fill="#E2E2F0" height="30.4883" rx="2.5" ry="2.5" style="stroke:#181818;stroke-width:0.5;" width="75.0586" x="254.8306" y="590.6348"/><text fill="#000000" font-family="sans-serif" font-size="14" lengthAdjust="spacing" textLength="61.0586" x="261.8306" y="611.1699">Frontend</text></g><g class="participant participant-head" data-participant="Gateway"><rect fill="#E2E2F0" height="30.4883" rx="2.5" ry="2.5" style="stroke:#181818;stroke-width:0.5;" width="70.7178" x="466.6128" y="87.4883"/><text fill="#000000" font-family="sans-serif" font-size="14" lengthAdjust="spacing" textLength="56.7178" x="473.6128" y="108.0234">Gateway</text></g><g class="participant participant-tail" data-participant="Gateway"><rect fill="#E2E2F0" height="30.4883" rx="2.5" ry="2.5" style="stroke:#181818;stroke-width:0.5;" width="70.7178" x="466.6128" y="590.6348"/><text fill="#000000" font-family="sans-serif" font-size="14" lengthAdjust="spacing" textLength="56.7178" x="473.6128" y="611.1699">Gateway</text></g><g class="participant participant-head" data-participant="SearchSvc"><rect fill="#E2E2F0" height="30.4883" rx="2.5" ry="2.5" style="stroke:#181818;stroke-width:0.5;" width="110.4209" x="632.6772" y="87.4883"/><text fill="#000000" font-family="sans-serif" font-size="14" lengthAdjust="spacing" textLength="96.4209" x="639.6772" y="108.0234">Search Service</text></g><g class="participant participant-tail" data-participant="SearchSvc"><rect fill="#E2E2F0" height="30.4883" rx="2.5" ry="2.5" style="stroke:#181818;stroke-width:0.5;" width="110.4209" x="632.6772" y="590.6348"/><text fill="#000000" font-family="sans-serif" font-size="14" lengthAdjust="spacing" textLength="96.4209" x="639.6772" y="611.1699">Search Service</text></g><g class="participant participant-head" data-participant="GroupSvc"><rect fill="#E2E2F0" height="30.4883" rx="2.5" ry="2.5" style="stroke:#181818;stroke-width:0.5;" width="147.9365" x="819.4878" y="87.4883"/><text fill="#000000" font-family="sans-serif" font-size="14" lengthAdjust="spacing" textLength="133.9365" x="826.4878" y="108.0234">GroupSearchService</text></g><g class="participant participant-tail" data-participant="GroupSvc"><rect fill="#E2E2F0" height="30.4883" rx="2.5" ry="2.5" style="stroke:#181818;stroke-width:0.5;" width="147.9365" x="819.4878" y="590.6348"/><text fill="#000000" font-family="sans-serif" font-size="14" lengthAdjust="spacing" textLength="133.9365" x="826.4878" y="611.1699">GroupSearchService</text></g><g class="participant participant-head" data-participant="GroupClient"><rect fill="#E2E2F0" height="30.4883" rx="2.5" ry="2.5" style="stroke:#181818;stroke-width:0.5;" width="140.041" x="1000.875" y="87.4883"/><text fill="#000000" font-family="sans-serif" font-size="14" lengthAdjust="spacing" textLength="126.041" x="1007.875" y="108.0234">Group HTTP Client</text></g><g class="participant participant-tail" data-participant="GroupClient"><rect fill="#E2E2F0" height="30.4883" rx="2.5" ry="2.5" style="stroke:#181818;stroke-width:0.5;" width="140.041" x="1000.875" y="590.6348"/><text fill="#000000" font-family="sans-serif" font-size="14" lengthAdjust="spacing" textLength="126.041" x="1007.875" y="611.1699">Group HTTP Client</text></g><g class="participant participant-head" data-participant="AppSvc"><rect fill="#E2E2F0" height="30.4883" rx="2.5" ry="2.5" style="stroke:#181818;stroke-width:0.5;" width="63.2393" x="1150.916" y="87.4883"/><text fill="#000000" font-family="sans-serif" font-size="14" lengthAdjust="spacing" textLength="49.2393" x="1157.916" y="108.0234">AppSvc</text></g><g class="participant participant-tail" data-participant="AppSvc"><rect fill="#E2E2F0" height="30.4883" rx="2.5" ry="2.5" style="stroke:#181818;stroke-width:0.5;" width="63.2393" x="1150.916" y="590.6348"/><text fill="#000000" font-family="sans-serif" font-size="14" lengthAdjust="spacing" textLength="49.2393" x="1157.916" y="611.1699">AppSvc</text></g><g class="participant participant-head" data-participant="Mongo"><text fill="#000000" font-family="sans-serif" font-size="14" lengthAdjust="spacing" textLength="46.6758" x="1327.2476" y="116.0234">Mongo</text><path d="M1335.5854,66.4883 C1335.5854,56.4883 1353.5854,56.4883 1353.5854,56.4883 C1353.5854,56.4883 1371.5854,56.4883 1371.5854,66.4883 L1371.5854,92.4883 C1371.5854,102.4883 1353.5854,102.4883 1353.5854,102.4883 C1353.5854,102.4883 1335.5854,102.4883 1335.5854,92.4883 L1335.5854,66.4883" fill="#E2E2F0" style="stroke:#181818;stroke-width:0.5;"/><path d="M1335.5854,66.4883 C1335.5854,76.4883 1353.5854,76.4883 1353.5854,76.4883 C1353.5854,76.4883 1371.5854,76.4883 1371.5854,66.4883" fill="none" style="stroke:#181818;stroke-width:0.5;"/></g><g class="participant participant-tail" data-participant="Mongo"><text fill="#000000" font-family="sans-serif" font-size="14" lengthAdjust="spacing" textLength="46.6758" x="1327.2476" y="604.1699">Mongo</text><path d="M1335.5854,617.123 C1335.5854,607.123 1353.5854,607.123 1353.5854,607.123 C1353.5854,607.123 1371.5854,607.123 1371.5854,617.123 L1371.5854,643.123 C1371.5854,653.123 1353.5854,653.123 1353.5854,653.123 C1353.5854,653.123 1335.5854,653.123 1335.5854,643.123 L1335.5854,617.123" fill="#E2E2F0" style="stroke:#181818;stroke-width:0.5;"/><path d="M1335.5854,617.123 C1335.5854,627.123 1353.5854,627.123 1353.5854,627.123 C1353.5854,627.123 1371.5854,627.123 1371.5854,617.123" fill="none" style="stroke:#181818;stroke-width:0.5;"/></g><g class="message" data-participant-1="WebUser" data-participant-2="Frontend"><polygon fill="#181818" points="280.3599,146.2871,290.3599,150.2871,280.3599,154.2871,284.3599,150.2871" style="stroke:#181818;stroke-width:1;"/><line style="stroke:#181818;stroke-width:1;" x1="37.4766" x2="286.3599" y1="150.2871" y2="150.2871"/><text fill="#000000" font-family="sans-serif" font-size="13" lengthAdjust="spacing" textLength="230.8833" x="44.4766" y="145.5449">Enter search criteria (title/tags/date)</text></g><g class="message" data-participant-1="Frontend" data-participant-2="Gateway"><polygon fill="#181818" points="489.9717,175.5977,499.9717,179.5977,489.9717,183.5977,493.9717,179.5977" style="stroke:#181818;stroke-width:1;"/><line style="stroke:#181818;stroke-width:1;" x1="292.3599" x2="495.9717" y1="179.5977" y2="179.5977"/><text fill="#000000" font-family="sans-serif" font-size="13" lengthAdjust="spacing" textLength="185.6118" x="299.3599" y="174.8555">POST /graphql (search query)</text></g><g class="message" data-participant-1="Gateway" data-participant-2="SearchSvc"><polygon fill="#181818" points="675.8877,204.9082,685.8877,208.9082,675.8877,212.9082,679.8877,208.9082" style="stroke:#181818;stroke-width:1;"/><line style="stroke:#181818;stroke-width:1;" x1="501.9717" x2="681.8877" y1="208.9082" y2="208.9082"/><text fill="#000000" font-family="sans-serif" font-size="13" lengthAdjust="spacing" textLength="161.916" x="508.9717" y="204.166">Forward GraphQL request</text></g><g class="message" data-participant-1="SearchSvc" data-participant-2="GroupSvc"><polygon fill="#181818" points="881.4561,234.2188,891.4561,238.2188,881.4561,242.2188,885.4561,238.2188" style="stroke:#181818;stroke-width:1;"/><line style="stroke:#181818;stroke-width:1;" x1="687.8877" x2="887.4561" y1="238.2188" y2="238.2188"/><text fill="#000000" font-family="sans-serif" font-size="13" lengthAdjust="spacing" textLength="176.7632" x="694.8877" y="233.4766">Resolve searchGroups(filter)</text></g><g class="message" data-participant-1="GroupSvc" data-participant-2="GroupClient"><polygon fill="#181818" points="1058.8955,263.5293,1068.8955,267.5293,1058.8955,271.5293,1062.8955,267.5293" style="stroke:#181818;stroke-width:1;"/><line style="stroke:#181818;stroke-width:1;" x1="893.4561" x2="1064.8955" y1="267.5293" y2="267.5293"/><text fill="#000000" font-family="sans-serif" font-size="13" lengthAdjust="spacing" textLength="76.21" x="900.4561" y="262.7871">ListGroups()</text></g><g class="message" data-participant-1="GroupClient" data-participant-2="AppSvc"><polygon fill="#181818" points="1170.5356,292.8398,1180.5356,296.8398,1170.5356,300.8398,1174.5356,296.8398" style="stroke:#181818;stroke-width:1;"/><line style="stroke:#181818;stroke-width:1;" x1="1070.8955" x2="1176.5356" y1="296.8398" y2="296.8398"/><text fill="#000000" font-family="sans-serif" font-size="13" lengthAdjust="spacing" textLength="80.0693" x="1077.8955" y="292.0977">GET /group/</text></g><g class="message" data-participant-1="AppSvc" data-participant-2="Mongo"><polygon fill="#181818" points="1341.5854,322.1504,1351.5854,326.1504,1341.5854,330.1504,1345.5854,326.1504" style="stroke:#181818;stroke-width:1;"/><line style="stroke:#181818;stroke-width:1;" x1="1182.5356" x2="1347.5854" y1="326.1504" y2="326.1504"/><text fill="#000000" font-family="sans-serif" font-size="13" lengthAdjust="spacing" textLength="147.0498" x="1189.5356" y="321.4082">Fetch groups collection</text></g><g class="message" data-participant-1="Mongo" data-participant-2="AppSvc"><polygon fill="#181818" points="1193.5356,351.4609,1183.5356,355.4609,1193.5356,359.4609,1189.5356,355.4609" style="stroke:#181818;stroke-width:1;"/><line style="stroke:#181818;stroke-width:1;stroke-dasharray:2,2;" x1="1187.5356" x2="1352.5854" y1="355.4609" y2="355.4609"/><text fill="#000000" font-family="sans-serif" font-size="13" lengthAdjust="spacing" textLength="94.2373" x="1199.5356" y="350.7188">Group DTO list</text></g><g class="message" data-participant-1="AppSvc" data-participant-2="GroupClient"><polygon fill="#181818" points="1081.8955,380.7715,1071.8955,384.7715,1081.8955,388.7715,1077.8955,384.7715" style="stroke:#181818;stroke-width:1;"/><line style="stroke:#181818;stroke-width:1;stroke-dasharray:2,2;" x1="1075.8955" x2="1181.5356" y1="384.7715" y2="384.7715"/><text fill="#000000" font-family="sans-serif" font-size="13" lengthAdjust="spacing" textLength="84.1191" x="1087.8955" y="380.0293">JSON payload</text></g><g class="message" data-participant-1="GroupClient" data-participant-2="GroupSvc"><polygon fill="#181818" points="904.4561,410.082,894.4561,414.082,904.4561,418.082,900.4561,414.082" style="stroke:#181818;stroke-width:1;"/><line style="stroke:#181818;stroke-width:1;stroke-dasharray:2,2;" x1="898.4561" x2="1069.8955" y1="414.082" y2="414.082"/><text fill="#000000" font-family="sans-serif" font-size="13" lengthAdjust="spacing" textLength="74.8516" x="910.4561" y="409.3398">Group array</text></g><g class="message" data-participant-1="GroupSvc" data-participant-2="GroupSvc"><line style="stroke:#181818;stroke-width:1;" x1="893.4561" x2="935.4561" y1="443.3926" y2="443.3926"/><line style="stroke:#181818;stroke-width:1;" x1="935.4561" x2="935.4561" y1="443.3926" y2="456.3926"/><line style="stroke:#181818;stroke-width:1;" x1="894.4561" x2="935.4561" y1="456.3926" y2="456.3926"/><polygon fill="#181818" points="904.4561,452.3926,894.4561,456.3926,904.4561,460.3926,900.4561,456.3926" style="stroke:#181818;stroke-width:1;"/><text fill="#000000" font-family="sans-serif" font-size="13" lengthAdjust="spacing" textLength="163.4395" x="900.4561" y="438.6504">Filter by tags/date/closed</text></g><g class="message" data-participant-1="GroupSvc" data-participant-2="SearchSvc"><polygon fill="#181818" points="698.8877,481.7031,688.8877,485.7031,698.8877,489.7031,694.8877,485.7031" style="stroke:#181818;stroke-width:1;"/><line style="stroke:#181818;stroke-width:1;stroke-dasharray:2,2;" x1="692.8877" x2="892.4561" y1="485.7031" y2="485.7031"/><text fill="#000000" font-family="sans-serif" font-size="13" lengthAdjust="spacing" textLength="181.5684" x="704.8877" y="480.9609">Filtered slice with pagination</text></g><g class="message" data-participant-1="SearchSvc" data-participant-2="Gateway"><polygon fill="#181818" points="512.9717,511.0137,502.9717,515.0137,512.9717,519.0137,508.9717,515.0137" style="stroke:#181818;stroke-width:1;"/><line style="stroke:#181818;stroke-width:1;stroke-dasharray:2,2;" x1="506.9717" x2="686.8877" y1="515.0137" y2="515.0137"/><text fill="#000000" font-family="sans-serif" font-size="13" lengthAdjust="spacing" textLength="116.5811" x="518.9717" y="510.2715">GraphQL response</text></g><g class="message" data-participant-1="Gateway" data-participant-2="Frontend"><polygon fill="#181818" points="303.3599,540.3242,293.3599,544.3242,303.3599,548.3242,299.3599,544.3242" style="stroke:#181818;stroke-width:1;"/><line style="stroke:#181818;stroke-width:1;stroke-dasharray:2,2;" x1="297.3599" x2="500.9717" y1="544.3242" y2="544.3242"/><text fill="#000000" font-family="sans-serif" font-size="13" lengthAdjust="spacing" textLength="118.187" x="309.3599" y="539.582">searchGroups data</text></g><g class="message" data-participant-1="Frontend" data-participant-2="WebUser"><polygon fill="#181818" points="48.4766,569.6348,38.4766,573.6348,48.4766,577.6348,44.4766,573.6348" style="stroke:#181818;stroke-width:1;"/><line style="stroke:#181818;stroke-width:1;stroke-dasharray:2,2;" x1="42.4766" x2="291.3599" y1="573.6348" y2="573.6348"/><text fill="#000000" font-family="sans-serif" font-size="13" lengthAdjust="spacing" textLength="140.1499" x="54.4766" y="568.8926">Render filtered results</text></g><!--SRC=[RLB1JiCm3BtdAwoTnc7gdGCI0ZQ4W04RukobPeiK9INnDktlSTEqQnYdfl7po_DxPiEMO16msRq_ozVl6rWH1hrJgDa7-ABDPwIW6Wnij6dGCSo3TqokBYuNo7J4Kt4twQY4CHoCfWbWpEohWowHwUbS6w6xwt_1yBXUly6TDUJuZEt-2_XjanXgPDnW97ZnRkkLofF1x6OO2AxXGGu1OgTR1oD_1c7AhKyLupPMmaDNQcYHzZowTByjLskejgsTFnQccUPdJ-5qfNgOT0mcIC_SXoE6UWWXaE0ZgpEcVIBx8FWFYjuUA6jCXJZzDbQKoXizhk_f_92sPnCvWpCibmJPEIIWnKEIByLAvKif9yDQfSGoJIf7qDvQqcoyKrrzLX2bXExNIx3oxi1reUffjNo51a_MOrsgAeVk-304sR2B6REFoGBOd628gTBMHwf77N-zJprKGxIoSN0ql1CrM-Cm3JQAe8Zv75Lil8jqZhPSfd54qExVQ6q4sMzWcwchvV3Ton7YlUNu2m00]--></g></svg>