<svg xmlns="http://www.w3.org/2000/svg" xmlns:xlink="http://www.w3.org/1999/xlink" contentStyleType="text/css" data-diagram-type="CLASS" height="690px" preserveAspectRatio="none" style="width:1794px;height:690px;background:#FFFFFF;" version="1.1" viewBox="0 0 1794 690" width="1794px" zoomAndPan="magnify"><defs/><g><!--cluster GraphQL Layer--><g class="cluster" data-entity="GraphQL Layer" data-source-line="13" data-uid="ent0002" id="cluster_GraphQL Layer"><rect fill="none" height="553.59" rx="2.5" ry="2.5" style="stroke:#000000;stroke-width:1.5;" width="438" x="7" y="7"/><text fill="#000000" font-family="sans-serif" font-size="14" font-weight="bold" lengthAdjust="spacing" textLength="106.8936" x="172.5532" y="22.5352">GraphQL Layer</text></g><!--cluster group--><g class="cluster" data-entity="group" data-source-line="27" data-uid="ent0006" id="cluster_group"><rect fill="none" height="91" rx="2.5" ry="2.5" style="stroke:#000000;stroke-width:1.5;" width="112" x="120" y="445.59"/><text fill="#000000" font-family="sans-serif" font-size="14" font-weight="bold" lengthAdjust="spacing" textLength="43.0117" x="154.4941" y="461.1252">group</text></g><!--cluster gql--><g class="cluster" data-entity="gql" data-source-line="29" data-uid="ent0010" id="cluster_gql"><rect fill="none" height="91" rx="2.5" ry="2.5" style="stroke:#000000;stroke-width:1.5;" width="116" x="305" y="234.42"/><text fill="#000000" font-family="sans-serif" font-size="14" font-weight="bold" lengthAdjust="spacing" textLength="23.0645" x="351.4678" y="249.9552">gql</text></g><!--cluster Domain Service--><g class="cluster" data-entity="Domain Service" data-source-line="32" data-uid="ent0012" id="cluster_Domain Service"><rect fill="none" height="351.4" rx="2.5" ry="2.5" style="stroke:#000000;stroke-width:1.5;" width="486" x="888" y="197.44"/><text fill="#000000" font-family="sans-serif" font-size="14" font-weight="bold" lengthAdjust="spacing" textLength="111.2891" x="1075.3555" y="212.9752">Domain Service</text></g><!--cluster Upstream Client--><g class="cluster" data-entity="Upstream Client" data-source-line="47" data-uid="ent0016" id="cluster_Upstream Client"><rect fill="none" height="343.15" rx="2.5" ry="2.5" style="stroke:#000000;stroke-width:1.5;" width="390" x="1398" y="205.69"/><text fill="#000000" font-family="sans-serif" font-size="14" font-weight="bold" lengthAdjust="spacing" textLength="116.3135" x="1534.8433" y="221.2252">Upstream Client</text></g><!--cluster DTO / Models--><g class="cluster" data-entity="DTO . Models" data-source-line="61" data-uid="ent0020" id="cluster_DTO . Models"><rect fill="none" height="239.39" rx="2.5" ry="2.5" style="stroke:#000000;stroke-width:1.5;" width="395" x="469" y="371.4"/><text fill="#000000" font-family="sans-serif" font-size="14" font-weight="bold" lengthAdjust="spacing" textLength="101.0283" x="615.9858" y="386.9352">DTO / Models</text></g><!--class SchemaBuilder--><g class="entity" data-entity="SchemaBuilder" data-source-line="14" data-uid="ent0003" id="entity_SchemaBuilder"><rect fill="#F1F1F1" height="80.9766" rx="2.5" ry="2.5" style="stroke:#181818;stroke-width:0.5;" width="220.8857" x="65.56" y="248.93"/><ellipse cx="122.165" cy="264.93" fill="#ADD1B2" rx="11" ry="11" style="stroke:#181818;stroke-width:1;"/><path d="M124.6381,271.0731 Q124.0571,271.3719 123.4179,271.5213 Q122.7788,271.6707 122.0732,271.6707 Q119.5663,271.6707 118.2465,270.0189 Q116.9267,268.367 116.9267,265.2459 Q116.9267,262.1165 118.2465,260.4647 Q119.5663,258.8128 122.0732,258.8128 Q122.7788,258.8128 123.4262,258.9622 Q124.0737,259.1116 124.6381,259.4105 L124.6381,262.1331 Q124.0073,261.5521 123.4138,261.2823 Q122.8203,261.0125 122.1894,261.0125 Q120.8447,261.0125 120.1599,262.0792 Q119.475,263.1458 119.475,265.2459 Q119.475,267.3377 120.1599,268.4044 Q120.8447,269.471 122.1894,269.471 Q122.8203,269.471 123.4138,269.2012 Q124.0073,268.9315 124.6381,268.3504 Z " fill="#000000"/><text fill="#000000" font-family="sans-serif" font-size="14" lengthAdjust="spacing" textLength="99.1758" x="142.665" y="270.221">SchemaBuilder</text><line style="stroke:#181818;stroke-width:0.5;" x1="66.56" x2="285.4457" y1="280.93" y2="280.93"/><rect fill="none" height="6" style="stroke:#C82930;stroke-width:1;" width="6" x="73.56" y="291.6741"/><text fill="#000000" font-family="sans-serif" font-size="14" lengthAdjust="spacing" textLength="194.8857" x="85.56" y="298.4652">GroupService : group.Service</text><line style="stroke:#181818;stroke-width:0.5;" x1="66.56" x2="285.4457" y1="305.4183" y2="305.4183"/><ellipse cx="76.56" cy="319.1624" fill="#84BE84" rx="3" ry="3" style="stroke:#038048;stroke-width:1;"/><text fill="#000000" font-family="sans-serif" font-size="14" lengthAdjust="spacing" textLength="134.0596" x="85.56" y="322.9534">Build() : gql.Schema</text></g><!--class GraphQLServer--><g class="entity" data-entity="GraphQLServer" data-source-line="19" data-uid="ent0004" id="entity_GraphQLServer"><rect fill="#F1F1F1" height="130.4414" rx="2.5" ry="2.5" style="stroke:#181818;stroke-width:0.5;" width="405.7432" x="23.13" y="42"/><ellipse cx="171.1212" cy="58" fill="#ADD1B2" rx="11" ry="11" style="stroke:#181818;stroke-width:1;"/><path d="M173.5944,64.1431 Q173.0133,64.4419 172.3741,64.5913 Q171.735,64.7407 171.0294,64.7407 Q168.5226,64.7407 167.2028,63.0889 Q165.8829,61.437 165.8829,58.3159 Q165.8829,55.1865 167.2028,53.5347 Q168.5226,51.8828 171.0294,51.8828 Q171.735,51.8828 172.3824,52.0322 Q173.0299,52.1816 173.5944,52.4805 L173.5944,55.2031 Q172.9635,54.6221 172.37,54.3523 Q171.7765,54.0825 171.1456,54.0825 Q169.8009,54.0825 169.1161,55.1492 Q168.4313,56.2158 168.4313,58.3159 Q168.4313,60.4077 169.1161,61.4744 Q169.8009,62.541 171.1456,62.541 Q171.7765,62.541 172.37,62.2712 Q172.9635,62.0015 173.5944,61.4204 Z " fill="#000000"/><text fill="#000000" font-family="sans-serif" font-size="14" lengthAdjust="spacing" textLength="101.2607" x="191.6212" y="63.291">GraphQLServer</text><line style="stroke:#181818;stroke-width:0.5;" x1="24.13" x2="427.8732" y1="74" y2="74"/><rect fill="none" height="6" style="stroke:#C82930;stroke-width:1;" width="6" x="31.13" y="84.7441"/><text fill="#000000" font-family="sans-serif" font-size="14" lengthAdjust="spacing" textLength="141.3535" x="43.13" y="91.5352">conf : *config.Config</text><rect fill="none" height="6" style="stroke:#C82930;stroke-width:1;" width="6" x="31.13" y="101.2324"/><text fill="#000000" font-family="sans-serif" font-size="14" lengthAdjust="spacing" textLength="142.9053" x="43.13" y="108.0234">schema : gql.Schema</text><line style="stroke:#181818;stroke-width:0.5;" x1="24.13" x2="427.8732" y1="114.9766" y2="114.9766"/><ellipse cx="34.13" cy="128.7207" fill="#84BE84" rx="3" ry="3" style="stroke:#038048;stroke-width:1;"/><text fill="#000000" font-family="sans-serif" font-size="14" lengthAdjust="spacing" textLength="82.209" x="43.13" y="132.5117">Run() : error</text><rect fill="#F24D5C" height="6" style="stroke:#C82930;stroke-width:1;" width="6" x="31.13" y="142.209"/><text fill="#000000" font-family="sans-serif" font-size="14" lengthAdjust="spacing" textLength="379.7432" x="43.13" y="149">handleGraphQL(w http.ResponseWriter, r *http.Request)</text><rect fill="#F24D5C" height="6" style="stroke:#C82930;stroke-width:1;" width="6" x="31.13" y="158.6973"/><text fill="#000000" font-family="sans-serif" font-size="14" lengthAdjust="spacing" textLength="376.0791" x="43.13" y="165.4883">writeResult(w http.ResponseWriter, params gql.Params)</text></g><!--class Service--><g class="entity" data-entity="Service" data-source-line="27" data-uid="ent0005" id="entity_Service"><rect fill="#F1F1F1" height="40" rx="2.5" ry="2.5" style="stroke:#181818;stroke-width:0.5;" width="79.332" x="136.33" y="480.59"/><ellipse cx="151.33" cy="496.59" fill="#ADD1B2" rx="11" ry="11" style="stroke:#181818;stroke-width:1;"/><path d="M153.8031,502.7331 Q153.2221,503.0319 152.5829,503.1813 Q151.9438,503.3307 151.2382,503.3307 Q148.7314,503.3307 147.4115,501.6789 Q146.0917,500.027 146.0917,496.9059 Q146.0917,493.7765 147.4115,492.1247 Q148.7314,490.4728 151.2382,490.4728 Q151.9438,490.4728 152.5912,490.6222 Q153.2387,490.7716 153.8031,491.0705 L153.8031,493.7931 Q153.1723,493.2121 152.5788,492.9423 Q151.9853,492.6725 151.3544,492.6725 Q150.0097,492.6725 149.3249,493.7392 Q148.6401,494.8058 148.6401,496.9059 Q148.6401,498.9977 149.3249,500.0644 Q150.0097,501.131 151.3544,501.131 Q151.9853,501.131 152.5788,500.8612 Q153.1723,500.5915 153.8031,500.0104 Z " fill="#000000"/><text fill="#000000" font-family="sans-serif" font-size="14" lengthAdjust="spacing" textLength="47.332" x="165.33" y="501.881">Service</text><line style="stroke:#181818;stroke-width:0.5;" x1="137.33" x2="214.662" y1="512.59" y2="512.59"/></g><!--class Schema--><g class="entity" data-entity="Schema" data-source-line="29" data-uid="ent0009" id="entity_Schema"><rect fill="#F1F1F1" height="40" rx="2.5" ry="2.5" style="stroke:#181818;stroke-width:0.5;" width="84.001" x="321" y="269.42"/><ellipse cx="336" cy="285.42" fill="#ADD1B2" rx="11" ry="11" style="stroke:#181818;stroke-width:1;"/><path d="M338.4731,291.5631 Q337.8921,291.8619 337.2529,292.0113 Q336.6138,292.1607 335.9082,292.1607 Q333.4014,292.1607 332.0815,290.5089 Q330.7617,288.857 330.7617,285.7359 Q330.7617,282.6065 332.0815,280.9547 Q333.4014,279.3028 335.9082,279.3028 Q336.6138,279.3028 337.2612,279.4522 Q337.9087,279.6016 338.4731,279.9005 L338.4731,282.6231 Q337.8423,282.0421 337.2488,281.7723 Q336.6553,281.5025 336.0244,281.5025 Q334.6797,281.5025 333.9949,282.5692 Q333.3101,283.6358 333.3101,285.7359 Q333.3101,287.8277 333.9949,288.8944 Q334.6797,289.961 336.0244,289.961 Q336.6553,289.961 337.2488,289.6912 Q337.8423,289.4215 338.4731,288.8404 Z " fill="#000000"/><text fill="#000000" font-family="sans-serif" font-size="14" lengthAdjust="spacing" textLength="52.001" x="350" y="290.711">Schema</text><line style="stroke:#181818;stroke-width:0.5;" x1="322" x2="404.001" y1="301.42" y2="301.42"/></g><!--class GroupService--><g class="entity" data-entity="GroupService" data-source-line="33" data-uid="ent0013" id="entity_GroupService"><rect fill="#F1F1F1" height="64.4883" rx="2.5" ry="2.5" style="stroke:#181818;stroke-width:0.5;" width="454.9756" x="903.51" y="468.35"/><ellipse cx="1082.1091" cy="484.35" fill="#B4A7E5" rx="11" ry="11" style="stroke:#181818;stroke-width:1;"/><path d="M1078.5369,480.6151 L1078.5369,478.4569 L1085.9163,478.4569 L1085.9163,480.6151 L1083.4509,480.6151 L1083.4509,488.6918 L1085.9163,488.6918 L1085.9163,490.85 L1078.5369,490.85 L1078.5369,488.6918 L1081.0022,488.6918 L1081.0022,480.6151 Z " fill="#000000"/><text fill="#000000" font-family="sans-serif" font-size="14" font-style="italic" lengthAdjust="spacing" textLength="89.2773" x="1102.6091" y="489.641">GroupService</text><line style="stroke:#181818;stroke-width:0.5;" x1="904.51" x2="1357.4856" y1="500.35" y2="500.35"/><line style="stroke:#181818;stroke-width:0.5;" x1="904.51" x2="1357.4856" y1="508.35" y2="508.35"/><ellipse cx="914.51" cy="522.0941" fill="#84BE84" rx="3" ry="3" style="stroke:#038048;stroke-width:1;"/><text fill="#000000" font-family="sans-serif" font-size="14" lengthAdjust="spacing" textLength="428.9756" x="923.51" y="525.8852">Search(ctx context.Context, filter SearchFilter) : ([]Group, error)</text></g><!--class GroupSearchService--><g class="entity" data-entity="GroupSearchService" data-source-line="37" data-uid="ent0014" id="entity_GroupSearchService"><rect fill="#F1F1F1" height="113.9531" rx="2.5" ry="2.5" style="stroke:#181818;stroke-width:0.5;" width="454.9756" x="903.51" y="232.44"/><ellipse cx="1059.7795" cy="248.44" fill="#ADD1B2" rx="11" ry="11" style="stroke:#181818;stroke-width:1;"/><path d="M1062.2527,254.5831 Q1061.6716,254.8819 1061.0325,255.0313 Q1060.3933,255.1807 1059.6877,255.1807 Q1057.1809,255.1807 1055.8611,253.5289 Q1054.5413,251.877 1054.5413,248.7559 Q1054.5413,245.6265 1055.8611,243.9747 Q1057.1809,242.3228 1059.6877,242.3228 Q1060.3933,242.3228 1061.0408,242.4722 Q1061.6882,242.6216 1062.2527,242.9205 L1062.2527,245.6431 Q1061.6218,245.0621 1061.0283,244.7923 Q1060.4348,244.5225 1059.8039,244.5225 Q1058.4592,244.5225 1057.7744,245.5892 Q1057.0896,246.6558 1057.0896,248.7559 Q1057.0896,250.8477 1057.7744,251.9144 Q1058.4592,252.981 1059.8039,252.981 Q1060.4348,252.981 1061.0283,252.7112 Q1061.6218,252.4415 1062.2527,251.8604 Z " fill="#000000"/><text fill="#000000" font-family="sans-serif" font-size="14" lengthAdjust="spacing" textLength="133.9365" x="1080.2795" y="253.731">GroupSearchService</text><line style="stroke:#181818;stroke-width:0.5;" x1="904.51" x2="1357.4856" y1="264.44" y2="264.44"/><rect fill="none" height="6" style="stroke:#C82930;stroke-width:1;" width="6" x="911.51" y="275.1841"/><text fill="#000000" font-family="sans-serif" font-size="14" lengthAdjust="spacing" textLength="89.7832" x="923.51" y="281.9752">client : Client</text><rect fill="none" height="6" style="stroke:#C82930;stroke-width:1;" width="6" x="911.51" y="291.6724"/><text fill="#000000" font-family="sans-serif" font-size="14" lengthAdjust="spacing" textLength="130.293" x="923.51" y="298.4634">defaultLimit : int64</text><rect fill="none" height="6" style="stroke:#C82930;stroke-width:1;" width="6" x="911.51" y="308.1607"/><text fill="#000000" font-family="sans-serif" font-size="14" lengthAdjust="spacing" textLength="112.2188" x="923.51" y="314.9517">maxLimit : int64</text><line style="stroke:#181818;stroke-width:0.5;" x1="904.51" x2="1357.4856" y1="321.9048" y2="321.9048"/><ellipse cx="914.51" cy="335.649" fill="#84BE84" rx="3" ry="3" style="stroke:#038048;stroke-width:1;"/><text fill="#000000" font-family="sans-serif" font-size="14" lengthAdjust="spacing" textLength="428.9756" x="923.51" y="339.44">Search(ctx context.Context, filter SearchFilter) : ([]Group, error)</text></g><!--class Client--><g class="entity" data-entity="Client" data-source-line="48" data-uid="ent0017" id="entity_Client"><rect fill="#F1F1F1" height="64.4883" rx="2.5" ry="2.5" style="stroke:#181818;stroke-width:0.5;" width="358.9648" x="1413.52" y="468.35"/><ellipse cx="1569" cy="484.35" fill="#B4A7E5" rx="11" ry="11" style="stroke:#181818;stroke-width:1;"/><path d="M1565.4277,480.6151 L1565.4277,478.4569 L1572.8071,478.4569 L1572.8071,480.6151 L1570.3418,480.6151 L1570.3418,488.6918 L1572.8071,488.6918 L1572.8071,490.85 L1565.4277,490.85 L1565.4277,488.6918 L1567.893,488.6918 L1567.893,480.6151 Z " fill="#000000"/><text fill="#000000" font-family="sans-serif" font-size="14" font-style="italic" lengthAdjust="spacing" textLength="39.5049" x="1589.5" y="489.641">Client</text><line style="stroke:#181818;stroke-width:0.5;" x1="1414.52" x2="1771.4848" y1="500.35" y2="500.35"/><line style="stroke:#181818;stroke-width:0.5;" x1="1414.52" x2="1771.4848" y1="508.35" y2="508.35"/><ellipse cx="1424.52" cy="522.0941" fill="#84BE84" rx="3" ry="3" style="stroke:#038048;stroke-width:1;"/><text fill="#000000" font-family="sans-serif" font-size="14" lengthAdjust="spacing" textLength="332.9648" x="1433.52" y="525.8852">ListGroups(ctx context.Context) : ([]Group, error)</text></g><!--class HTTPClient--><g class="entity" data-entity="HTTPClient" data-source-line="52" data-uid="ent0018" id="entity_HTTPClient"><rect fill="#F1F1F1" height="97.4648" rx="2.5" ry="2.5" style="stroke:#181818;stroke-width:0.5;" width="358.9648" x="1413.52" y="240.69"/><ellipse cx="1551.1343" cy="256.69" fill="#ADD1B2" rx="11" ry="11" style="stroke:#181818;stroke-width:1;"/><path d="M1553.6074,262.8331 Q1553.0263,263.1319 1552.3872,263.2813 Q1551.748,263.4307 1551.0425,263.4307 Q1548.5356,263.4307 1547.2158,261.7789 Q1545.896,260.127 1545.896,257.0059 Q1545.896,253.8765 1547.2158,252.2247 Q1548.5356,250.5728 1551.0425,250.5728 Q1551.748,250.5728 1552.3955,250.7222 Q1553.0429,250.8716 1553.6074,251.1705 L1553.6074,253.8931 Q1552.9765,253.3121 1552.383,253.0423 Q1551.7895,252.7725 1551.1587,252.7725 Q1549.8139,252.7725 1549.1291,253.8392 Q1548.4443,254.9058 1548.4443,257.0059 Q1548.4443,259.0977 1549.1291,260.1644 Q1549.8139,261.231 1551.1587,261.231 Q1551.7895,261.231 1552.383,260.9612 Q1552.9765,260.6915 1553.6074,260.1104 Z " fill="#000000"/><text fill="#000000" font-family="sans-serif" font-size="14" lengthAdjust="spacing" textLength="75.2363" x="1571.6343" y="261.981">HTTPClient</text><line style="stroke:#181818;stroke-width:0.5;" x1="1414.52" x2="1771.4848" y1="272.69" y2="272.69"/><rect fill="none" height="6" style="stroke:#C82930;stroke-width:1;" width="6" x="1421.52" y="283.4341"/><text fill="#000000" font-family="sans-serif" font-size="14" lengthAdjust="spacing" textLength="110.3525" x="1433.52" y="290.2252">baseURL : string</text><rect fill="none" height="6" style="stroke:#C82930;stroke-width:1;" width="6" x="1421.52" y="299.9224"/><text fill="#000000" font-family="sans-serif" font-size="14" lengthAdjust="spacing" textLength="159.4209" x="1433.52" y="306.7134">httpClient : *http.Client</text><line style="stroke:#181818;stroke-width:0.5;" x1="1414.52" x2="1771.4848" y1="313.6666" y2="313.6666"/><ellipse cx="1424.52" cy="327.4107" fill="#84BE84" rx="3" ry="3" style="stroke:#038048;stroke-width:1;"/><text fill="#000000" font-family="sans-serif" font-size="14" lengthAdjust="spacing" textLength="332.9648" x="1433.52" y="331.2017">ListGroups(ctx context.Context) : ([]Group, error)</text></g><!--class SearchFilter--><g class="entity" data-entity="SearchFilter" data-source-line="62" data-uid="ent0021" id="entity_SearchFilter"><rect fill="#F1F1F1" height="138.9297" rx="2.5" ry="2.5" style="stroke:#181818;stroke-width:0.5;" width="171.4141" x="485.29" y="431.13"/><ellipse cx="527.4658" cy="447.13" fill="#ADD1B2" rx="11" ry="11" style="stroke:#181818;stroke-width:1;"/><path d="M529.9389,453.2731 Q529.3579,453.5719 528.7187,453.7213 Q528.0796,453.8707 527.374,453.8707 Q524.8671,453.8707 523.5473,452.2189 Q522.2275,450.567 522.2275,447.4459 Q522.2275,444.3165 523.5473,442.6647 Q524.8671,441.0128 527.374,441.0128 Q528.0796,441.0128 528.727,441.1622 Q529.3745,441.3116 529.9389,441.6105 L529.9389,444.3331 Q529.3081,443.7521 528.7146,443.4823 Q528.1211,443.2125 527.4902,443.2125 Q526.1455,443.2125 525.4607,444.2792 Q524.7758,445.3458 524.7758,447.4459 Q524.7758,449.5377 525.4607,450.6044 Q526.1455,451.671 527.4902,451.671 Q528.1211,451.671 528.7146,451.4012 Q529.3081,451.1315 529.9389,450.5504 Z " fill="#000000"/><text fill="#000000" font-family="sans-serif" font-size="14" lengthAdjust="spacing" textLength="79.0234" x="547.5048" y="452.421">SearchFilter</text><line style="stroke:#181818;stroke-width:0.5;" x1="486.29" x2="655.7041" y1="463.13" y2="463.13"/><ellipse cx="496.29" cy="476.8741" fill="none" rx="3" ry="3" style="stroke:#038048;stroke-width:1;"/><text fill="#000000" font-family="sans-serif" font-size="14" lengthAdjust="spacing" textLength="82.8379" x="505.29" y="480.6652">Title : string</text><ellipse cx="496.29" cy="493.3624" fill="none" rx="3" ry="3" style="stroke:#038048;stroke-width:1;"/><text fill="#000000" font-family="sans-serif" font-size="14" lengthAdjust="spacing" textLength="122.1035" x="505.29" y="497.1534">Tags : []GroupTag</text><ellipse cx="496.29" cy="509.8507" fill="none" rx="3" ry="3" style="stroke:#038048;stroke-width:1;"/><text fill="#000000" font-family="sans-serif" font-size="14" lengthAdjust="spacing" textLength="124.5166" x="505.29" y="513.6417">DateQuery : string</text><ellipse cx="496.29" cy="526.339" fill="none" rx="3" ry="3" style="stroke:#038048;stroke-width:1;"/><text fill="#000000" font-family="sans-serif" font-size="14" lengthAdjust="spacing" textLength="145.4141" x="505.29" y="530.13">IncludeClosed : *bool</text><ellipse cx="496.29" cy="542.8273" fill="none" rx="3" ry="3" style="stroke:#038048;stroke-width:1;"/><text fill="#000000" font-family="sans-serif" font-size="14" lengthAdjust="spacing" textLength="82.8311" x="505.29" y="546.6183">Limit : int64</text><ellipse cx="496.29" cy="559.3155" fill="none" rx="3" ry="3" style="stroke:#038048;stroke-width:1;"/><text fill="#000000" font-family="sans-serif" font-size="14" lengthAdjust="spacing" textLength="90.3096" x="505.29" y="563.1066">Offset : int64</text></g><!--class Group--><g class="entity" data-entity="Group" data-source-line="71" data-uid="ent0022" id="entity_Group"><rect fill="#F1F1F1" height="188.3945" rx="2.5" ry="2.5" style="stroke:#181818;stroke-width:0.5;" width="156.6074" x="691.7" y="406.4"/><ellipse cx="744.7811" cy="422.4" fill="#ADD1B2" rx="11" ry="11" style="stroke:#181818;stroke-width:1;"/><path d="M747.2542,428.5431 Q746.6731,428.8419 746.034,428.9913 Q745.3948,429.1407 744.6893,429.1407 Q742.1824,429.1407 740.8626,427.4889 Q739.5428,425.837 739.5428,422.7159 Q739.5428,419.5865 740.8626,417.9347 Q742.1824,416.2828 744.6893,416.2828 Q745.3948,416.2828 746.0423,416.4322 Q746.6897,416.5816 747.2542,416.8805 L747.2542,419.6031 Q746.6233,419.0221 746.0298,418.7523 Q745.4363,418.4825 744.8055,418.4825 Q743.4607,418.4825 742.7759,419.5492 Q742.0911,420.6158 742.0911,422.7159 Q742.0911,424.8077 742.7759,425.8744 Q743.4607,426.941 744.8055,426.941 Q745.4363,426.941 746.0298,426.6712 Q746.6233,426.4015 747.2542,425.8204 Z " fill="#000000"/><text fill="#000000" font-family="sans-serif" font-size="14" lengthAdjust="spacing" textLength="41.9453" x="765.2811" y="427.691">Group</text><line style="stroke:#181818;stroke-width:0.5;" x1="692.7" x2="847.3074" y1="438.4" y2="438.4"/><ellipse cx="702.7" cy="452.1441" fill="none" rx="3" ry="3" style="stroke:#038048;stroke-width:1;"/><text fill="#000000" font-family="sans-serif" font-size="14" lengthAdjust="spacing" textLength="109.3203" x="711.7" y="455.9352">GroupID : string</text><ellipse cx="702.7" cy="468.6324" fill="none" rx="3" ry="3" style="stroke:#038048;stroke-width:1;"/><text fill="#000000" font-family="sans-serif" font-size="14" lengthAdjust="spacing" textLength="82.8379" x="711.7" y="472.4234">Title : string</text><ellipse cx="702.7" cy="485.1207" fill="none" rx="3" ry="3" style="stroke:#038048;stroke-width:1;"/><text fill="#000000" font-family="sans-serif" font-size="14" lengthAdjust="spacing" textLength="130.6074" x="711.7" y="488.9117">Description : string</text><ellipse cx="702.7" cy="501.609" fill="none" rx="3" ry="3" style="stroke:#038048;stroke-width:1;"/><text fill="#000000" font-family="sans-serif" font-size="14" lengthAdjust="spacing" textLength="111.2549" x="711.7" y="505.4">OwnerID : string</text><ellipse cx="702.7" cy="518.0973" fill="none" rx="3" ry="3" style="stroke:#038048;stroke-width:1;"/><text fill="#000000" font-family="sans-serif" font-size="14" lengthAdjust="spacing" textLength="124.3662" x="711.7" y="521.8883">Members : []string</text><ellipse cx="702.7" cy="534.5855" fill="none" rx="3" ry="3" style="stroke:#038048;stroke-width:1;"/><text fill="#000000" font-family="sans-serif" font-size="14" lengthAdjust="spacing" textLength="122.1035" x="711.7" y="538.3766">Tags : []GroupTag</text><ellipse cx="702.7" cy="551.0738" fill="none" rx="3" ry="3" style="stroke:#038048;stroke-width:1;"/><text fill="#000000" font-family="sans-serif" font-size="14" lengthAdjust="spacing" textLength="89.4277" x="711.7" y="554.8648">Closed : bool</text><ellipse cx="702.7" cy="567.5621" fill="none" rx="3" ry="3" style="stroke:#038048;stroke-width:1;"/><text fill="#000000" font-family="sans-serif" font-size="14" lengthAdjust="spacing" textLength="84.1094" x="711.7" y="571.3531">Date : string</text><ellipse cx="702.7" cy="584.0504" fill="none" rx="3" ry="3" style="stroke:#038048;stroke-width:1;"/><text fill="#000000" font-family="sans-serif" font-size="14" lengthAdjust="spacing" textLength="120.5449" x="711.7" y="587.8414">CreatedAt : string</text></g><!--link SchemaBuilder to Service--><g class="link" data-entity-1="SchemaBuilder" data-entity-2="Service" data-source-line="27" data-uid="lnk7" id="link_SchemaBuilder_Service"><path codeLine="27" d="M176,330.39 C176,375.36 176,439.76 176,474.22" fill="none" id="SchemaBuilder-to-Service" style="stroke:#181818;stroke-width:1;stroke-dasharray:7,7;"/><polygon fill="#181818" points="176,480.22,180,471.22,176,475.22,172,471.22,176,480.22" style="stroke:#181818;stroke-width:1;"/></g><!--link GraphQLServer to SchemaBuilder--><g class="link" data-entity-1="GraphQLServer" data-entity-2="SchemaBuilder" data-source-line="28" data-uid="lnk8" id="link_GraphQLServer_SchemaBuilder"><path codeLine="28" d="M176,172.74 C176,198.04 176,220.21 176,242.53" fill="none" id="GraphQLServer-to-SchemaBuilder" style="stroke:#181818;stroke-width:1;stroke-dasharray:7,7;"/><polygon fill="#181818" points="176,248.53,180,239.53,176,243.53,172,239.53,176,248.53" style="stroke:#181818;stroke-width:1;"/></g><!--link GraphQLServer to Schema--><g class="link" data-entity-1="GraphQLServer" data-entity-2="Schema" data-source-line="29" data-uid="lnk11" id="link_GraphQLServer_Schema"><path codeLine="29" d="M363,172.74 C363,206.82 363,240.09 363,263.27" fill="none" id="GraphQLServer-to-Schema" style="stroke:#181818;stroke-width:1;stroke-dasharray:7,7;"/><polygon fill="#181818" points="363,269.27,367,260.27,363,264.27,359,260.27,363,269.27" style="stroke:#181818;stroke-width:1;"/></g><!--link GroupSearchService to GroupService--><g class="link" data-entity-1="GroupSearchService" data-entity-2="GroupService" data-source-line="44" data-uid="lnk15" id="link_GroupSearchService_GroupService"><path codeLine="44" d="M1131,346.84 C1131,385.8 1131,417.9 1131,450.13" fill="none" id="GroupSearchService-to-GroupService" style="stroke:#181818;stroke-width:1;stroke-dasharray:7,7;"/><polygon fill="none" points="1131,468.13,1137,450.13,1125,450.13,1131,468.13" style="stroke:#181818;stroke-width:1;"/></g><!--link HTTPClient to Client--><g class="link" data-entity-1="HTTPClient" data-entity-2="Client" data-source-line="58" data-uid="lnk19" id="link_HTTPClient_Client"><path codeLine="58" d="M1652.83,338.4 C1652.83,378.24 1652.83,415.35 1652.83,449.97" fill="none" id="HTTPClient-to-Client" style="stroke:#181818;stroke-width:1;stroke-dasharray:7,7;"/><polygon fill="none" points="1652.83,467.97,1658.83,449.97,1646.83,449.97,1652.83,467.97" style="stroke:#181818;stroke-width:1;"/></g><!--link SchemaBuilder to SearchFilter--><g class="link" data-entity-1="SchemaBuilder" data-entity-2="SearchFilter" data-source-line="84" data-uid="lnk23" id="link_SchemaBuilder_SearchFilter"><path codeLine="84" d="M239.26,330.12 C239.26,379.37 239.26,455.79 239.26,455.79 C239.26,455.79 380.84,455.79 479.14,455.79" fill="none" id="SchemaBuilder-to-SearchFilter" style="stroke:#181818;stroke-width:1;stroke-dasharray:7,7;"/><polygon fill="#181818" points="485.14,455.79,476.14,451.79,480.14,455.79,476.14,459.79,485.14,455.79" style="stroke:#181818;stroke-width:1;"/></g><!--link SchemaBuilder to Group--><g class="link" data-entity-1="SchemaBuilder" data-entity-2="Group" data-source-line="85" data-uid="lnk24" id="link_SchemaBuilder_Group"><path codeLine="85" d="M262.85,330.35 C262.85,368.25 262.85,418.79 262.85,418.79 C262.85,418.79 542.87,418.79 685.31,418.79" fill="none" id="SchemaBuilder-to-Group" style="stroke:#181818;stroke-width:1;stroke-dasharray:7,7;"/><polygon fill="#181818" points="691.31,418.79,682.31,414.79,686.31,418.79,682.31,422.79,691.31,418.79" style="stroke:#181818;stroke-width:1;"/></g><!--link GroupSearchService to SearchFilter--><g class="link" data-entity-1="GroupSearchService" data-entity-2="SearchFilter" data-source-line="86" data-uid="lnk25" id="link_GroupSearchService_SearchFilter"><path codeLine="86" d="M903.23,335.79 C748.19,335.79 571,335.79 571,335.79 C571,335.79 571,379.78 571,424.7" fill="none" id="GroupSearchService-to-SearchFilter" style="stroke:#181818;stroke-width:1;stroke-dasharray:7,7;"/><polygon fill="#181818" points="571,430.7,575,421.7,571,425.7,567,421.7,571,430.7" style="stroke:#181818;stroke-width:1;"/></g><!--link GroupSearchService to Group--><g class="link" data-entity-1="GroupSearchService" data-entity-2="Group" data-source-line="87" data-uid="lnk26" id="link_GroupSearchService_Group"><path codeLine="87" d="M903.14,340.79 C831.16,340.79 770,340.79 770,340.79 C770,340.79 770,365.65 770,400.25" fill="none" id="GroupSearchService-to-Group" style="stroke:#181818;stroke-width:1;stroke-dasharray:7,7;"/><polygon fill="#181818" points="770,406.25,774,397.25,770,401.25,766,397.25,770,406.25" style="stroke:#181818;stroke-width:1;"/></g><!--link HTTPClient to Group--><g class="link" data-entity-1="HTTPClient" data-entity-2="Group" data-source-line="88" data-uid="lnk27" id="link_HTTPClient_Group"><path codeLine="88" d="M1533.17,338.41 C1533.17,381.63 1533.17,437.79 1533.17,437.79 C1533.17,437.79 1049.79,437.79 854.8,437.79" fill="none" id="HTTPClient-to-Group" style="stroke:#181818;stroke-width:1;stroke-dasharray:7,7;"/><polygon fill="#181818" points="848.8,437.79,857.8,441.79,853.8,437.79,857.8,433.79,848.8,437.79" style="stroke:#181818;stroke-width:1;"/></g><g class="legend" data-source-line="8"><rect fill="#F7F7F7" height="42.9766" rx="7.5" ry="7.5" style="stroke:#BBBBBB;stroke-width:1;" width="395.4648" x="1372.5352" y="627.79"/><text fill="#000000" font-family="sans-serif" font-size="14" font-weight="bold" lengthAdjust="spacing" textLength="289.666" x="1377.5352" y="646.3252">TeamUp Search Service - Class Diagram</text><text fill="#000000" font-family="sans-serif" font-size="14" lengthAdjust="spacing" textLength="385.4648" x="1377.5352" y="662.8134">GraphQL gateway that reuses the app-service group API.</text></g><!--SRC=[hLJBRjim4BphAnRfnKbZvLAqG14OI6oa3U0WBmSz53tGqbeYGf4AITKnqlnxbvGSa9OCj6Yb0oNkOsPdbpIFNDPCimfCoNArvhA05HC64_Dc4LoYtTG8IjjI1OQQPO-im7kx4GWQCyja8Q98B53cv-HMQDN8VAg4ql3kufDx-tvAvwWxdtF_92NF4R2gxGOg9FJS94dh3PeNfKq0JfUJ1RBgeOPxP3ehQT4_UOOmXgbWni2Ciu9GJa-M4tB_ebbTtiwXO1RNR0EsP9R8DmODVIEmkXwRBeDZNSFPpMMQ46ABcoHTsN2mJJLd6zG7y4BP0JAFUP-LMB7pXWiggREuPqpub7DByNCBaNR_RsxlmOUE3ft7aqZRTDxycWGm7GCNlWEJARcYu2EtyYAT-YMm6v-ndxv5lskanqQjbGwYIkPaw517QoYjhTCxDBMI1hzfRb4VWuQZRl-fGMCFW_YrSo7_HjXzqNuYZATrupyFmx9ZNTDqCY1WB8hpYQBs-0Gwl0OzdgcASRcTgMsJkIIkAqOTZDhv4aZO3kCeiy-k5nQVhMk2MuzXnGN5TouN_iUfFVh-mwSxRdK_7EgtHtDXVKngkk0eBMMQ-e_0akEAaUXpNd5d9_uVFmJcYZqFc_vx7GCLfEclIQHZr827sbXDvxkhgT-1TZ_IViwDzGdD4Ey_a_hhOd7JIps69JFuS3Ud54IBRilmSD0uJxSTQ8_0JX_-bLd0oOlMfO_cTN4D9t2bSXHcvqeAkXIfjU1MOByWCh32q7v7YFu2suokpzi6zMOey59ceibnAfJ1t8cnL4f4AWpFslLgPJ0szCS_ukvtBcU3xFULDKEJQLvRhkIG-NejKG-dlC9gYRhLvA_KUbDYHmYduX3Gb2RUOdvcO-EhQtN_2WmxEs3sV9B1WxSJkyUdJH0DttRpDm00]--></g></svg>